999
dxflib 2.2.0.0
  0
SECTION
  2
HEADER
  9
$ACADVER
  1
AC1015
  9
$HANDSEED
  5
FFFF
  9
$DIMASZ
 40
2.5
  9
$PLIMMIN
 10
0.0
 20
0.0
  9
$DIMEXE
 40
1.25
  9
$DIMGAP
 40
0.625
  9
$PLIMMAX
 10
210.0
 20
297.0
  9
$INSUNITS
 70
4
  9
$DIMSTYLE
  2
Standard
  9
$CLAYER
  8
0
  9
$DIMEXO
 40
0.625
  9
$DIMTXT
 40
2.5
  9
$CLAYER
  8
0
  0
ENDSEC
  0
SECTION
  2
TABLES
  0
TABLE
  2
VPORT
  5
8
100
AcDbSymbolTable
 70
1
  0
VPORT
  5
30
100
AcDbSymbolTableRecord
100
AcDbViewportTableRecord
  2
*Active
 70
0
 10
0.0
 20
0.0
 11
1.0
 21
1.0
 12
286.3055555555554861
 22
148.5
 13
0.0
 23
0.0
 14
10.0
 24
10.0
 15
10.0
 25
10.0
 16
0.0
 26
0.0
 36
1.0
 17
0.0
 27
0.0
 37
0.0
 40
297.0
 41
1.92798353909465
 42
50.0
 43
0.0
 44
0.0
 50
0.0
 51
0.0
 71
0
 72
100
 73
1
 74
3
 75
1
 76
1
 77
0
 78
0
281
0
 65
1
110
0.0
120
0.0
130
0.0
111
1.0
121
0.0
131
0.0
112
0.0
122
1.0
132
0.0
 79
0
146
0.0
  0
ENDTAB
  0
TABLE
  2
LTYPE
  5
5
100
AcDbSymbolTable
 70
21
  0
LTYPE
  5
14
100
AcDbSymbolTableRecord
100
AcDbLinetypeTableRecord
  2
ByBlock
 70
0
  3

 72
65
 73
0
 40
0.0
  0
LTYPE
  5
15
100
AcDbSymbolTableRecord
100
AcDbLinetypeTableRecord
  2
ByLayer
 70
0
  3

 72
65
 73
0
 40
0.0
  0
LTYPE
  5
16
100
AcDbSymbolTableRecord
100
AcDbLinetypeTableRecord
  2
CONTINUOUS
 70
0
  3
Solid line
 72
65
 73
0
 40
0.0
  0
LTYPE
  5
31
100
AcDbSymbolTableRecord
100
AcDbLinetypeTableRecord
  2
DOT
 70
0
  3
Dot . . . . . . . . . . . . . . . . . . . . . .
 72
65
 73
2
 40
6.3499999999999996
 49
0.0
 74
0
 49
-6.3499999999999996
 74
0
  0
LTYPE
  5
32
100
AcDbSymbolTableRecord
100
AcDbLinetypeTableRecord
  2
DOT2
 70
0
  3
Dot (.5x) .....................................
 72
65
 73
2
 40
3.1749999999999998
 49
0.0
 74
0
 49
-3.1749999999999998
 74
0
  0
LTYPE
  5
33
100
AcDbSymbolTableRecord
100
AcDbLinetypeTableRecord
  2
DOTX2
 70
0
  3
Dot (2x) .  .  .  .  .  .  .  .  .  .  .  .  .
 72
65
 73
2
 40
12.6999999999999993
 49
0.0
 74
0
 49
-12.6999999999999993
 74
0
  0
LTYPE
  5
34
100
AcDbSymbolTableRecord
100
AcDbLinetypeTableRecord
  2
DASHED
 70
0
  3
Dashed __ __ __ __ __ __ __ __ __ __ __ __ __ _
 72
65
 73
2
 40
19.0500000000000007
 49
12.6999999999999993
 74
0
 49
-6.3499999999999996
 74
0
  0
LTYPE
  5
35
100
AcDbSymbolTableRecord
100
AcDbLinetypeTableRecord
  2
DASHED2
 70
0
  3
Dashed (.5x) _ _ _ _ _ _ _ _ _ _ _ _ _ _ _ _ _
 72
65
 73
2
 40
9.5250000000000004
 49
6.3499999999999996
 74
0
 49
-3.1749999999999998
 74
0
  0
LTYPE
  5
36
100
AcDbSymbolTableRecord
100
AcDbLinetypeTableRecord
  2
DASHEDX2
 70
0
  3
Dashed (2x) ____  ____  ____  ____  ____  ___
 72
65
 73
2
 40
38.1000000000000014
 49
25.3999999999999986
 74
0
 49
-12.6999999999999993
 74
0
  0
LTYPE
  5
37
100
AcDbSymbolTableRecord
100
AcDbLinetypeTableRecord
  2
DASHDOT
 70
0
  3
Dash dot __ . __ . __ . __ . __ . __ . __ . __
 72
65
 73
4
 40
25.3999999999999986
 49
12.6999999999999993
 74
0
 49
-6.3499999999999996
 74
0
 49
0.0
 74
0
 49
-6.3499999999999996
 74
0
  0
LTYPE
  5
38
100
AcDbSymbolTableRecord
100
AcDbLinetypeTableRecord
  2
DASHDOT2
 70
0
  3
Dash dot (.5x) _._._._._._._._._._._._._._._.
 72
65
 73
4
 40
12.6999999999999993
 49
6.3499999999999996
 74
0
 49
-3.1749999999999998
 74
0
 49
0.0
 74
0
 49
-3.1749999999999998
 74
0
  0
LTYPE
  5
39
100
AcDbSymbolTableRecord
100
AcDbLinetypeTableRecord
  2
DASHDOTX2
 70
0
  3
Dash dot (2x) ____  .  ____  .  ____  .  ___
 72
65
 73
4
 40
50.7999999999999972
 49
25.3999999999999986
 74
0
 49
-12.6999999999999993
 74
0
 49
0.0
 74
0
 49
-12.6999999999999993
 74
0
  0
LTYPE
  5
3A
100
AcDbSymbolTableRecord
100
AcDbLinetypeTableRecord
  2
DIVIDE
 70
0
  3
Divide ____ . . ____ . . ____ . . ____ . . ____
 72
65
 73
6
 40
31.75
 49
12.6999999999999993
 74
0
 49
-6.3499999999999996
 74
0
 49
0.0
 74
0
 49
-6.3499999999999996
 74
0
 49
0.0
 74
0
 49
-6.3499999999999996
 74
0
  0
LTYPE
  5
3B
100
AcDbSymbolTableRecord
100
AcDbLinetypeTableRecord
  2
DIVIDE2
 70
0
  3
Divide (.5x) __..__..__..__..__..__..__..__.._
 72
65
 73
6
 40
15.875
 49
6.3499999999999996
 74
0
 49
-3.1749999999999998
 74
0
 49
0.0
 74
0
 49
-3.1749999999999998
 74
0
 49
0.0
 74
0
 49
-3.1749999999999998
 74
0
  0
LTYPE
  5
3C
100
AcDbSymbolTableRecord
100
AcDbLinetypeTableRecord
  2
DIVIDEX2
 70
0
  3
Divide (2x) ________  .  .  ________  .  .  _
 72
65
 73
6
 40
63.5
 49
25.3999999999999986
 74
0
 49
-12.6999999999999993
 74
0
 49
0.0
 74
0
 49
-12.6999999999999993
 74
0
 49
0.0
 74
0
 49
-12.6999999999999993
 74
0
  0
LTYPE
  5
3D
100
AcDbSymbolTableRecord
100
AcDbLinetypeTableRecord
  2
CENTER
 70
0
  3
Center ____ _ ____ _ ____ _ ____ _ ____ _ ____
 72
65
 73
4
 40
50.7999999999999972
 49
31.75
 74
0
 49
-6.3499999999999996
 74
0
 49
6.3499999999999996
 74
0
 49
-6.3499999999999996
 74
0
  0
LTYPE
  5
3E
100
AcDbSymbolTableRecord
100
AcDbLinetypeTableRecord
  2
CENTER2
 70
0
  3
Center (.5x) ___ _ ___ _ ___ _ ___ _ ___ _ ___
 72
65
 73
4
 40
28.5749999999999993
 49
19.0500000000000007
 74
0
 49
-3.1749999999999998
 74
0
 49
3.1749999999999998
 74
0
 49
-3.1749999999999998
 74
0
  0
LTYPE
  5
3F
100
AcDbSymbolTableRecord
100
AcDbLinetypeTableRecord
  2
CENTERX2
 70
0
  3
Center (2x) ________  __  ________  __  _____
 72
65
 73
4
 40
101.5999999999999943
 49
63.5
 74
0
 49
-12.6999999999999993
 74
0
 49
12.6999999999999993
 74
0
 49
-12.6999999999999993
 74
0
  0
LTYPE
  5
40
100
AcDbSymbolTableRecord
100
AcDbLinetypeTableRecord
  2
BORDER
 70
0
  3
Border __ __ . __ __ . __ __ . __ __ . __ __ .
 72
65
 73
6
 40
44.4500000000000028
 49
12.6999999999999993
 74
0
 49
-6.3499999999999996
 74
0
 49
12.6999999999999993
 74
0
 49
-6.3499999999999996
 74
0
 49
0.0
 74
0
 49
-6.3499999999999996
 74
0
  0
LTYPE
  5
41
100
AcDbSymbolTableRecord
100
AcDbLinetypeTableRecord
  2
BORDER2
 70
0
  3
Border (.5x) __.__.__.__.__.__.__.__.__.__.__.
 72
65
 73
6
 40
22.2250000000000014
 49
6.3499999999999996
 74
0
 49
-3.1749999999999998
 74
0
 49
6.3499999999999996
 74
0
 49
-3.1749999999999998
 74
0
 49
0.0
 74
0
 49
-3.1749999999999998
 74
0
  0
LTYPE
  5
42
100
AcDbSymbolTableRecord
100
AcDbLinetypeTableRecord
  2
BORDERX2
 70
0
  3
Border (2x) ____  ____  .  ____  ____  .  ___
 72
65
 73
6
 40
88.9000000000000057
 49
25.3999999999999986
 74
0
 49
-12.6999999999999993
 74
0
 49
25.3999999999999986
 74
0
 49
-12.6999999999999993
 74
0
 49
0.0
 74
0
 49
-12.6999999999999993
 74
0
  0
ENDTAB
  0
TABLE
  2
LAYER
  5
2
100
AcDbSymbolTable
 70
2
  0
LAYER
  5
10
100
AcDbSymbolTableRecord
100
AcDbLayerTableRecord
  2
0
 70
0
 62
7
420
0
  6
CONTINUOUS
370
0
390
F
  0
LAYER
  5
43
100
AcDbSymbolTableRecord
100
AcDbLayerTableRecord
  2
etch
 70
0
 62
1
420
16711680
  6
CONTINUOUS
370
0
390
F
  0
ENDTAB
  0
TABLE
  2
STYLE
  5
3
100
AcDbSymbolTable
 70
1
  0
STYLE
  5
11
100
AcDbSymbolTableRecord
100
AcDbTextStyleTableRecord
  2
Standard
 70
0
 40
0.0
 41
0.75
 50
0.0
 71
0
 42
2.5
  3
txt
  4

  0
ENDTAB
  0
TABLE
  2
VIEW
  5
6
100
AcDbSymbolTable
 70
0
  0
ENDTAB
  0
TABLE
  2
UCS
  5
7
100
AcDbSymbolTable
 70
0
  0
ENDTAB
  0
TABLE
  2
APPID
  5
9
100
AcDbSymbolTable
 70
1
  0
APPID
  5
12
100
AcDbSymbolTableRecord
100
AcDbRegAppTableRecord
  2
ACAD
 70
0
  0
ENDTAB
  0
TABLE
  2
DIMSTYLE
  5
A
100
AcDbSymbolTable
 70
1
100
AcDbDimStyleTable
 71
0
  0
DIMSTYLE
105
27
100
AcDbSymbolTableRecord
100
AcDbDimStyleTableRecord
  2
Standard
 41
2.5
 42
0.625
 43
3.75
 44
1.25
 70
0
 73
0
 74
0
 77
1
 78
8
140
2.5
141
2.5
143
0.03937007874016
147
0.625
171
3
172
1
271
2
272
2
274
3
278
44
283
0
284
8
340
11
  0
ENDTAB
  0
TABLE
  2
BLOCK_RECORD
  5
1
100
AcDbSymbolTable
 70
1
  0
BLOCK_RECORD
  5
1F
100
AcDbSymbolTableRecord
100
AcDbBlockTableRecord
  2
*Model_Space
340
22
  0
BLOCK_RECORD
  5
1B
100
AcDbSymbolTableRecord
100
AcDbBlockTableRecord
  2
*Paper_Space
340
1E
  0
BLOCK_RECORD
  5
23
100
AcDbSymbolTableRecord
100
AcDbBlockTableRecord
  2
*Paper_Space0
340
26
  0
ENDTAB
  0
ENDSEC
  0
SECTION
  2
BLOCKS
  0
BLOCK
  5
20
100
AcDbEntity
  8
0
100
AcDbBlockBegin
  2
*Model_Space
 70
0
 10
0.0
 20
0.0
 30
0.0
  3
*Model_Space
  1

  0
ENDBLK
  5
21
100
AcDbEntity
  8
0
100
AcDbBlockEnd
  0
BLOCK
  5
1C
100
AcDbEntity
 67
1
  8
0
100
AcDbBlockBegin
  2
*Paper_Space
 70
0
 10
0.0
 20
0.0
 30
0.0
  3
*Paper_Space
  1

  0
ENDBLK
  5
1D
100
AcDbEntity
 67
1
  8
0
100
AcDbBlockEnd
  0
BLOCK
  5
24
100
AcDbEntity
  8
0
100
AcDbBlockBegin
  2
*Paper_Space0
 70
0
 10
0.0
 20
0.0
 30
0.0
  3
*Paper_Space0
  1

  0
ENDBLK
  5
25
100
AcDbEntity
  8
0
100
AcDbBlockEnd
  0
ENDSEC
  0
SECTION
  2
ENTITIES
  0
LINE
  5
44
100
AcDbEntity
100
AcDbLine
  8
0
 62
256
370
-1
  6
ByLayer
 10
-4.4499999999999984
 20
-5.4000000000000012
 30
0.0
 11
4.4499999999999966
 21
-5.400000000000003
 31
0.0
  0
LINE
  5
45
100
AcDbEntity
100
AcDbLine
  8
0
 62
256
370
-1
  6
ByLayer
 10
4.4499999999999966
 20
-5.400000000000003
 30
0.0
 11
4.4499999999999993
 21
5.4000000000000004
 31
0.0
  0
LINE
  5
46
100
AcDbEntity
100
AcDbLine
  8
0
 62
256
370
-1
  6
ByLayer
 10
4.4499999999999993
 20
5.4000000000000004
 30
0.0
 11
-4.4500000000000002
 21
5.4000000000000004
 31
0.0
  0
LINE
  5
47
100
AcDbEntity
100
AcDbLine
  8
0
 62
256
370
-1
  6
ByLayer
 10
-4.4500000000000002
 20
5.4000000000000004
 30
0.0
 11
-4.4499999999999984
 21
-5.4000000000000012
 31
0.0
  0
LINE
  5
48
100
AcDbEntity
100
AcDbLine
  8
0
 62
256
370
-1
  6
ByLayer
 10
-6.5
 20
30.0
 30
0.0
 11
6.5
 21
30.0
 31
0.0
  0
LINE
  5
49
100
AcDbEntity
100
AcDbLine
  8
0
 62
256
370
-1
  6
ByLayer
 10
6.5
 20
30.0
 30
0.0
 11
6.5
 21
40.0
 31
0.0
  0
LINE
  5
4A
100
AcDbEntity
100
AcDbLine
  8
0
 62
256
370
-1
  6
ByLayer
 10
6.5
 20
40.0
 30
0.0
 11
-6.5
 21
40.0
 31
0.0
  0
LINE
  5
4B
100
AcDbEntity
100
AcDbLine
  8
0
 62
256
370
-1
  6
ByLayer
 10
-6.5
 20
40.0
 30
0.0
 11
-6.5
 21
30.0
 31
0.0
  0
LINE
  5
4C
100
AcDbEntity
100
AcDbLine
  8
etch
 62
256
370
-1
  6
ByLayer
 10
-7.5591466666666687
 20
58.2296799999999948
 30
0.0
 11
-7.7311866666666695
 21
58.0576399999999921
 31
0.0
  0
LINE
  5
4D
100
AcDbEntity
100
AcDbLine
  8
etch
 62
256
370
-1
  6
ByLayer
 10
-7.7311866666666695
 20
58.0576399999999921
 30
0.0
 11
-7.5591466666666687
 21
57.8855933333333326
 31
0.0
  0
LINE
  5
4E
100
AcDbEntity
100
AcDbLine
  8
etch
 62
256
370
-1
  6
ByLayer
 10
-7.5591466666666687
 20
57.8855933333333326
 30
0.0
 11
-7.387100000000002
 21
58.0576399999999921
 31
0.0
  0
LINE
  5
4F
100
AcDbEntity
100
AcDbLine
  8
etch
 62
256
370
-1
  6
ByLayer
 10
-7.387100000000002
 20
58.0576399999999921
 30
0.0
 11
-7.387100000000002
 21
58.2296799999999948
 31
0.0
  0
LINE
  5
50
100
AcDbEntity
100
AcDbLine
  8
etch
 62
256
370
-1
  6
ByLayer
 10
-7.387100000000002
 20
58.2296799999999948
 30
0.0
 11
-7.5591466666666687
 21
58.5737666666666641
 31
0.0
  0
LINE
  5
51
100
AcDbEntity
100
AcDbLine
  8
etch
 62
256
370
-1
  6
ByLayer
 10
-7.5591466666666687
 20
58.5737666666666641
 30
0.0
 11
-7.9032333333333362
 21
58.7458133333333308
 31
0.0
  0
LINE
  5
52
100
AcDbEntity
100
AcDbLine
  8
etch
 62
256
370
-1
  6
ByLayer
 10
-7.9032333333333362
 20
58.7458133333333308
 30
0.0
 11
-8.4193600000000011
 21
58.7458133333333308
 31
0.0
  0
LINE
  5
53
100
AcDbEntity
100
AcDbLine
  8
etch
 62
256
370
-1
  6
ByLayer
 10
-8.4193600000000011
 20
58.7458133333333308
 30
0.0
 11
-8.9354866666666695
 21
58.5737666666666641
 31
0.0
  0
LINE
  5
54
100
AcDbEntity
100
AcDbLine
  8
etch
 62
256
370
-1
  6
ByLayer
 10
-8.9354866666666695
 20
58.5737666666666641
 30
0.0
 11
-9.2795733333333352
 21
58.2296799999999948
 31
0.0
  0
LINE
  5
55
100
AcDbEntity
100
AcDbLine
  8
etch
 62
256
370
-1
  6
ByLayer
 10
-9.2795733333333352
 20
58.2296799999999948
 30
0.0
 11
-9.6236606666666695
 21
57.7135533333333299
 31
0.0
  0
LINE
  5
56
100
AcDbEntity
100
AcDbLine
  8
etch
 62
256
370
-1
  6
ByLayer
 10
-9.6236606666666695
 20
57.7135533333333299
 30
0.0
 11
-9.7957033333333356
 21
57.1974199999999939
 31
0.0
  0
LINE
  5
57
100
AcDbEntity
100
AcDbLine
  8
etch
 62
256
370
-1
  6
ByLayer
 10
-9.7957033333333356
 20
57.1974199999999939
 30
0.0
 11
-9.9677466666666685
 21
56.5092533333333336
 31
0.0
  0
LINE
  5
58
100
AcDbEntity
100
AcDbLine
  8
etch
 62
256
370
-1
  6
ByLayer
 10
-9.9677466666666685
 20
56.5092533333333336
 30
0.0
 11
-9.9677466666666685
 21
55.8210799999999949
 31
0.0
  0
LINE
  5
59
100
AcDbEntity
100
AcDbLine
  8
etch
 62
256
370
-1
  6
ByLayer
 10
-9.9677466666666685
 20
55.8210799999999949
 30
0.0
 11
-9.7957033333333356
 21
55.4769926666666606
 31
0.0
  0
LINE
  5
5A
100
AcDbEntity
100
AcDbLine
  8
etch
 62
256
370
-1
  6
ByLayer
 10
-9.7957033333333356
 20
55.4769926666666606
 30
0.0
 11
-9.6236606666666695
 21
55.3049499999999981
 31
0.0
  0
LINE
  5
5B
100
AcDbEntity
100
AcDbLine
  8
etch
 62
256
370
-1
  6
ByLayer
 10
-9.6236606666666695
 20
55.3049499999999981
 30
0.0
 11
-9.2795733333333352
 21
55.1329066666666634
 31
0.0
  0
LINE
  5
5C
100
AcDbEntity
100
AcDbLine
  8
etch
 62
256
370
-1
  6
ByLayer
 10
-9.2795733333333352
 20
55.1329066666666634
 30
0.0
 11
-8.7634466666666686
 21
55.1329066666666634
 31
0.0
  0
LINE
  5
5D
100
AcDbEntity
100
AcDbLine
  8
etch
 62
256
370
-1
  6
ByLayer
 10
-8.7634466666666686
 20
55.1329066666666634
 30
0.0
 11
-8.2473133333333344
 21
55.3049499999999981
 31
0.0
  0
LINE
  5
5E
100
AcDbEntity
100
AcDbLine
  8
etch
 62
256
370
-1
  6
ByLayer
 10
-8.2473133333333344
 20
55.3049499999999981
 30
0.0
 11
-7.9032333333333362
 21
55.6490359999999953
 31
0.0
  0
LINE
  5
5F
100
AcDbEntity
100
AcDbLine
  8
etch
 62
256
370
-1
  6
ByLayer
 10
-7.9032333333333362
 20
55.6490359999999953
 30
0.0
 11
-7.7311866666666695
 21
55.9931199999999976
 31
0.0
  0
LINE
  5
60
100
AcDbEntity
100
AcDbLine
  8
etch
 62
256
370
-1
  6
ByLayer
 10
-7.7311866666666695
 20
55.9931199999999976
 30
0.0
 11
-7.7311866666666695
 21
56.5092533333333336
 31
0.0
  0
LINE
  5
61
100
AcDbEntity
100
AcDbLine
  8
etch
 62
256
370
-1
  6
ByLayer
 10
-7.7311866666666695
 20
56.5092533333333336
 30
0.0
 11
-7.9032333333333362
 21
56.8533399999999958
 31
0.0
  0
LINE
  5
62
100
AcDbEntity
100
AcDbLine
  8
etch
 62
256
370
-1
  6
ByLayer
 10
-7.9032333333333362
 20
56.8533399999999958
 30
0.0
 11
-8.0752733333333353
 21
57.0253799999999984
 31
0.0
  0
LINE
  5
63
100
AcDbEntity
100
AcDbLine
  8
etch
 62
256
370
-1
  6
ByLayer
 10
-8.0752733333333353
 20
57.0253799999999984
 30
0.0
 11
-8.4193600000000011
 21
57.1974199999999939
 31
0.0
  0
LINE
  5
64
100
AcDbEntity
100
AcDbLine
  8
etch
 62
256
370
-1
  6
ByLayer
 10
-8.4193600000000011
 20
57.1974199999999939
 30
0.0
 11
-8.9354866666666695
 21
57.1974199999999939
 31
0.0
  0
LINE
  5
65
100
AcDbEntity
100
AcDbLine
  8
etch
 62
256
370
-1
  6
ByLayer
 10
-8.9354866666666695
 20
57.1974199999999939
 30
0.0
 11
-9.2795733333333352
 21
57.0253799999999984
 31
0.0
  0
LINE
  5
66
100
AcDbEntity
100
AcDbLine
  8
etch
 62
256
370
-1
  6
ByLayer
 10
-9.2795733333333352
 20
57.0253799999999984
 30
0.0
 11
-9.6236606666666695
 21
56.6812933333333291
 31
0.0
  0
LINE
  5
67
100
AcDbEntity
100
AcDbLine
  8
etch
 62
256
370
-1
  6
ByLayer
 10
-9.6236606666666695
 20
56.6812933333333291
 30
0.0
 11
-9.7957033333333356
 21
56.3372066666666598
 31
0.0
  0
LINE
  5
68
100
AcDbEntity
100
AcDbLine
  8
etch
 62
256
370
-1
  6
ByLayer
 10
-8.4193600000000011
 20
58.7458133333333308
 30
0.0
 11
-8.7634466666666686
 21
58.5737666666666641
 31
0.0
  0
LINE
  5
69
100
AcDbEntity
100
AcDbLine
  8
etch
 62
256
370
-1
  6
ByLayer
 10
-8.7634466666666686
 20
58.5737666666666641
 30
0.0
 11
-9.1075333333333361
 21
58.2296799999999948
 31
0.0
  0
LINE
  5
6A
100
AcDbEntity
100
AcDbLine
  8
etch
 62
256
370
-1
  6
ByLayer
 10
-9.1075333333333361
 20
58.2296799999999948
 30
0.0
 11
-9.4516173333333349
 21
57.7135533333333299
 31
0.0
  0
LINE
  5
6B
100
AcDbEntity
100
AcDbLine
  8
etch
 62
256
370
-1
  6
ByLayer
 10
-9.4516173333333349
 20
57.7135533333333299
 30
0.0
 11
-9.6236606666666695
 21
57.1974199999999939
 31
0.0
  0
LINE
  5
6C
100
AcDbEntity
100
AcDbLine
  8
etch
 62
256
370
-1
  6
ByLayer
 10
-9.6236606666666695
 20
57.1974199999999939
 30
0.0
 11
-9.7957033333333356
 21
56.5092533333333336
 31
0.0
  0
LINE
  5
6D
100
AcDbEntity
100
AcDbLine
  8
etch
 62
256
370
-1
  6
ByLayer
 10
-9.7957033333333356
 20
56.5092533333333336
 30
0.0
 11
-9.7957033333333356
 21
55.6490359999999953
 31
0.0
  0
LINE
  5
6E
100
AcDbEntity
100
AcDbLine
  8
etch
 62
256
370
-1
  6
ByLayer
 10
-9.7957033333333356
 20
55.6490359999999953
 30
0.0
 11
-9.6236606666666695
 21
55.3049499999999981
 31
0.0
  0
LINE
  5
6F
100
AcDbEntity
100
AcDbLine
  8
etch
 62
256
370
-1
  6
ByLayer
 10
-8.7634466666666686
 20
55.1329066666666634
 30
0.0
 11
-8.4193600000000011
 21
55.3049499999999981
 31
0.0
  0
LINE
  5
70
100
AcDbEntity
100
AcDbLine
  8
etch
 62
256
370
-1
  6
ByLayer
 10
-8.4193600000000011
 20
55.3049499999999981
 30
0.0
 11
-8.0752733333333353
 21
55.6490359999999953
 31
0.0
  0
LINE
  5
71
100
AcDbEntity
100
AcDbLine
  8
etch
 62
256
370
-1
  6
ByLayer
 10
-8.0752733333333353
 20
55.6490359999999953
 30
0.0
 11
-7.9032333333333362
 21
55.9931199999999976
 31
0.0
  0
LINE
  5
72
100
AcDbEntity
100
AcDbLine
  8
etch
 62
256
370
-1
  6
ByLayer
 10
-7.9032333333333362
 20
55.9931199999999976
 30
0.0
 11
-7.9032333333333362
 21
56.6812933333333291
 31
0.0
  0
LINE
  5
73
100
AcDbEntity
100
AcDbLine
  8
etch
 62
256
370
-1
  6
ByLayer
 10
-7.9032333333333362
 20
56.6812933333333291
 30
0.0
 11
-8.0752733333333353
 21
57.0253799999999984
 31
0.0
  0
LINE
  5
74
100
AcDbEntity
100
AcDbLine
  8
etch
 62
256
370
-1
  6
ByLayer
 10
-0.543014000000003
 20
58.7458133333333308
 30
0.0
 11
-0.3709706666666696
 21
55.1329066666666634
 31
0.0
  0
LINE
  5
75
100
AcDbEntity
100
AcDbLine
  8
etch
 62
256
370
-1
  6
ByLayer
 10
-0.3709706666666698
 20
58.7458133333333308
 30
0.0
 11
-0.1989266666666696
 21
55.4769926666666606
 31
0.0
  0
LINE
  5
76
100
AcDbEntity
100
AcDbLine
  8
etch
 62
256
370
-1
  6
ByLayer
 10
1.8655866666666636
 20
58.7458133333333308
 30
0.0
 11
-0.3709706666666696
 21
55.1329066666666634
 31
0.0
  0
LINE
  5
77
100
AcDbEntity
100
AcDbLine
  8
etch
 62
256
370
-1
  6
ByLayer
 10
-0.8871000000000027
 20
58.7458133333333308
 30
0.0
 11
0.1451599999999968
 21
58.7458133333333308
 31
0.0
  0
LINE
  5
78
100
AcDbEntity
100
AcDbLine
  8
etch
 62
256
370
-1
  6
ByLayer
 10
1.1774133333333303
 20
58.7458133333333308
 30
0.0
 11
2.2096733333333303
 21
58.7458133333333308
 31
0.0
  0
LINE
  5
79
100
AcDbEntity
100
AcDbLine
  8
etch
 62
256
370
-1
  6
ByLayer
 10
5.7580599999999977
 20
58.7458133333333308
 30
0.0
 11
4.7258026666666639
 21
55.1329066666666634
 31
0.0
  0
LINE
  5
7A
100
AcDbEntity
100
AcDbLine
  8
etch
 62
256
370
-1
  6
ByLayer
 10
5.9301066666666644
 20
58.7458133333333308
 30
0.0
 11
4.8978466666666645
 21
55.1329066666666634
 31
0.0
  0
LINE
  5
7B
100
AcDbEntity
100
AcDbLine
  8
etch
 62
256
370
-1
  6
ByLayer
 10
5.2419333333333302
 20
58.7458133333333308
 30
0.0
 11
6.7903199999999977
 21
58.7458133333333308
 31
0.0
  0
LINE
  5
7C
100
AcDbEntity
100
AcDbLine
  8
etch
 62
256
370
-1
  6
ByLayer
 10
6.7903199999999977
 20
58.7458133333333308
 30
0.0
 11
7.3064466666666643
 21
58.5737666666666641
 31
0.0
  0
LINE
  5
7D
100
AcDbEntity
100
AcDbLine
  8
etch
 62
256
370
-1
  6
ByLayer
 10
7.3064466666666643
 20
58.5737666666666641
 30
0.0
 11
7.478493333333331
 21
58.4017266666666615
 31
0.0
  0
LINE
  5
7E
100
AcDbEntity
100
AcDbLine
  8
etch
 62
256
370
-1
  6
ByLayer
 10
7.478493333333331
 20
58.4017266666666615
 30
0.0
 11
7.6505333333333319
 21
57.8855933333333326
 31
0.0
  0
LINE
  5
7F
100
AcDbEntity
100
AcDbLine
  8
etch
 62
256
370
-1
  6
ByLayer
 10
7.6505333333333319
 20
57.8855933333333326
 30
0.0
 11
7.6505333333333319
 21
57.1974199999999939
 31
0.0
  0
LINE
  5
80
100
AcDbEntity
100
AcDbLine
  8
etch
 62
256
370
-1
  6
ByLayer
 10
7.6505333333333319
 20
57.1974199999999939
 30
0.0
 11
7.478493333333331
 21
56.5092533333333336
 31
0.0
  0
LINE
  5
81
100
AcDbEntity
100
AcDbLine
  8
etch
 62
256
370
-1
  6
ByLayer
 10
7.478493333333331
 20
56.5092533333333336
 30
0.0
 11
7.1344066666666643
 21
55.8210799999999949
 31
0.0
  0
LINE
  5
82
100
AcDbEntity
100
AcDbLine
  8
etch
 62
256
370
-1
  6
ByLayer
 10
7.1344066666666643
 20
55.8210799999999949
 30
0.0
 11
6.7903199999999977
 21
55.4769926666666606
 31
0.0
  0
LINE
  5
83
100
AcDbEntity
100
AcDbLine
  8
etch
 62
256
370
-1
  6
ByLayer
 10
6.7903199999999977
 20
55.4769926666666606
 30
0.0
 11
6.4462333333333302
 21
55.3049500000000052
 31
0.0
  0
LINE
  5
84
100
AcDbEntity
100
AcDbLine
  8
etch
 62
256
370
-1
  6
ByLayer
 10
6.4462333333333302
 20
55.3049500000000052
 30
0.0
 11
5.7580599999999977
 21
55.1329066666666634
 31
0.0
  0
LINE
  5
85
100
AcDbEntity
100
AcDbLine
  8
etch
 62
256
370
-1
  6
ByLayer
 10
5.7580599999999977
 20
55.1329066666666634
 30
0.0
 11
4.2096733333333312
 21
55.1329066666666634
 31
0.0
  0
LINE
  5
86
100
AcDbEntity
100
AcDbLine
  8
etch
 62
256
370
-1
  6
ByLayer
 10
6.7903199999999977
 20
58.7458133333333308
 30
0.0
 11
7.1344066666666652
 21
58.5737666666666641
 31
0.0
  0
LINE
  5
87
100
AcDbEntity
100
AcDbLine
  8
etch
 62
256
370
-1
  6
ByLayer
 10
7.1344066666666652
 20
58.5737666666666641
 30
0.0
 11
7.3064466666666643
 21
58.4017266666666615
 31
0.0
  0
LINE
  5
88
100
AcDbEntity
100
AcDbLine
  8
etch
 62
256
370
-1
  6
ByLayer
 10
7.3064466666666643
 20
58.4017266666666615
 30
0.0
 11
7.478493333333331
 21
57.8855933333333326
 31
0.0
  0
LINE
  5
89
100
AcDbEntity
100
AcDbLine
  8
etch
 62
256
370
-1
  6
ByLayer
 10
7.478493333333331
 20
57.8855933333333326
 30
0.0
 11
7.478493333333331
 21
57.1974199999999939
 31
0.0
  0
LINE
  5
8A
100
AcDbEntity
100
AcDbLine
  8
etch
 62
256
370
-1
  6
ByLayer
 10
7.478493333333331
 20
57.1974199999999939
 30
0.0
 11
7.3064466666666643
 21
56.5092533333333336
 31
0.0
  0
LINE
  5
8B
100
AcDbEntity
100
AcDbLine
  8
etch
 62
256
370
-1
  6
ByLayer
 10
7.3064466666666643
 20
56.5092533333333336
 30
0.0
 11
6.9623599999999977
 21
55.8210799999999949
 31
0.0
  0
LINE
  5
8C
100
AcDbEntity
100
AcDbLine
  8
etch
 62
256
370
-1
  6
ByLayer
 10
6.9623599999999977
 20
55.8210799999999949
 30
0.0
 11
6.618273333333331
 21
55.4769926666666606
 31
0.0
  0
LINE
  5
8D
100
AcDbEntity
100
AcDbLine
  8
etch
 62
256
370
-1
  6
ByLayer
 10
6.618273333333331
 20
55.4769926666666606
 30
0.0
 11
6.2741866666666635
 21
55.3049499999999981
 31
0.0
  0
LINE
  5
8E
100
AcDbEntity
100
AcDbLine
  8
etch
 62
256
370
-1
  6
ByLayer
 10
6.2741866666666635
 20
55.3049499999999981
 30
0.0
 11
5.7580599999999977
 21
55.1329066666666634
 31
0.0
  0
LINE
  5
8F
100
AcDbEntity
100
AcDbLine
  8
etch
 62
256
370
-1
  6
ByLayer
 10
12.2311799999999984
 20
58.4017266666666686
 30
0.0
 11
12.4032199999999975
 21
58.4017266666666686
 31
0.0
  0
LINE
  5
90
100
AcDbEntity
100
AcDbLine
  8
etch
 62
256
370
-1
  6
ByLayer
 10
12.4032199999999975
 20
58.4017266666666686
 30
0.0
 11
12.5752666666666642
 21
58.7458133333333379
 31
0.0
  0
LINE
  5
91
100
AcDbEntity
100
AcDbLine
  8
etch
 62
256
370
-1
  6
ByLayer
 10
12.5752666666666642
 20
58.7458133333333379
 30
0.0
 11
12.4032199999999975
 21
57.713553333333337
 31
0.0
  0
LINE
  5
92
100
AcDbEntity
100
AcDbLine
  8
etch
 62
256
370
-1
  6
ByLayer
 10
12.4032199999999975
 20
57.713553333333337
 30
0.0
 11
12.4032199999999975
 21
58.0576400000000064
 31
0.0
  0
LINE
  5
93
100
AcDbEntity
100
AcDbLine
  8
etch
 62
256
370
-1
  6
ByLayer
 10
12.4032199999999975
 20
58.0576400000000064
 30
0.0
 11
12.2311799999999984
 21
58.4017266666666686
 31
0.0
  0
LINE
  5
94
100
AcDbEntity
100
AcDbLine
  8
etch
 62
256
370
-1
  6
ByLayer
 10
12.2311799999999984
 20
58.4017266666666686
 30
0.0
 11
12.0591333333333317
 21
58.5737666666666712
 31
0.0
  0
LINE
  5
95
100
AcDbEntity
100
AcDbLine
  8
etch
 62
256
370
-1
  6
ByLayer
 10
12.0591333333333317
 20
58.5737666666666712
 30
0.0
 11
11.7150466666666642
 21
58.7458133333333379
 31
0.0
  0
LINE
  5
96
100
AcDbEntity
100
AcDbLine
  8
etch
 62
256
370
-1
  6
ByLayer
 10
11.7150466666666642
 20
58.7458133333333379
 30
0.0
 11
11.1989199999999993
 21
58.7458133333333379
 31
0.0
  0
LINE
  5
97
100
AcDbEntity
100
AcDbLine
  8
etch
 62
256
370
-1
  6
ByLayer
 10
11.1989199999999993
 20
58.7458133333333379
 30
0.0
 11
10.6827933333333309
 21
58.5737666666666712
 31
0.0
  0
LINE
  5
98
100
AcDbEntity
100
AcDbLine
  8
etch
 62
256
370
-1
  6
ByLayer
 10
10.6827933333333309
 20
58.5737666666666712
 30
0.0
 11
10.3387066666666652
 21
58.2296800000000019
 31
0.0
  0
LINE
  5
99
100
AcDbEntity
100
AcDbLine
  8
etch
 62
256
370
-1
  6
ByLayer
 10
10.3387066666666652
 20
58.2296800000000019
 30
0.0
 11
9.9946193333333309
 21
57.713553333333337
 31
0.0
  0
LINE
  5
9A
100
AcDbEntity
100
AcDbLine
  8
etch
 62
256
370
-1
  6
ByLayer
 10
9.9946193333333309
 20
57.713553333333337
 30
0.0
 11
9.8225766666666647
 21
57.197420000000001
 31
0.0
  0
LINE
  5
9B
100
AcDbEntity
100
AcDbLine
  8
etch
 62
256
370
-1
  6
ByLayer
 10
9.8225766666666647
 20
57.197420000000001
 30
0.0
 11
9.6505333333333319
 21
56.5092533333333407
 31
0.0
  0
LINE
  5
9C
100
AcDbEntity
100
AcDbLine
  8
etch
 62
256
370
-1
  6
ByLayer
 10
9.6505333333333319
 20
56.5092533333333407
 30
0.0
 11
9.6505333333333319
 21
55.9931200000000047
 31
0.0
  0
LINE
  5
9D
100
AcDbEntity
100
AcDbLine
  8
etch
 62
256
370
-1
  6
ByLayer
 10
9.6505333333333319
 20
55.9931200000000047
 30
0.0
 11
9.8225766666666647
 21
55.4769926666666677
 31
0.0
  0
LINE
  5
9E
100
AcDbEntity
100
AcDbLine
  8
etch
 62
256
370
-1
  6
ByLayer
 10
9.8225766666666647
 20
55.4769926666666677
 30
0.0
 11
9.9946193333333309
 21
55.3049500000000052
 31
0.0
  0
LINE
  5
9F
100
AcDbEntity
100
AcDbLine
  8
etch
 62
256
370
-1
  6
ByLayer
 10
9.9946193333333309
 20
55.3049500000000052
 30
0.0
 11
10.5107466666666642
 21
55.1329066666666705
 31
0.0
  0
LINE
  5
A0
100
AcDbEntity
100
AcDbLine
  8
etch
 62
256
370
-1
  6
ByLayer
 10
10.5107466666666642
 20
55.1329066666666705
 30
0.0
 11
11.0268799999999985
 21
55.1329066666666705
 31
0.0
  0
LINE
  5
A1
100
AcDbEntity
100
AcDbLine
  8
etch
 62
256
370
-1
  6
ByLayer
 10
11.0268799999999985
 20
55.1329066666666705
 30
0.0
 11
11.370966666666666
 21
55.3049500000000052
 31
0.0
  0
LINE
  5
A2
100
AcDbEntity
100
AcDbLine
  8
etch
 62
256
370
-1
  6
ByLayer
 10
11.370966666666666
 20
55.3049500000000052
 30
0.0
 11
11.7150466666666642
 21
55.6490360000000024
 31
0.0
  0
LINE
  5
A3
100
AcDbEntity
100
AcDbLine
  8
etch
 62
256
370
-1
  6
ByLayer
 10
11.7150466666666642
 20
55.6490360000000024
 30
0.0
 11
11.8870933333333308
 21
55.9931200000000047
 31
0.0
  0
LINE
  5
A4
100
AcDbEntity
100
AcDbLine
  8
etch
 62
256
370
-1
  6
ByLayer
 10
11.1989199999999993
 20
58.7458133333333379
 30
0.0
 11
10.8548333333333318
 21
58.5737666666666712
 31
0.0
  0
LINE
  5
A5
100
AcDbEntity
100
AcDbLine
  8
etch
 62
256
370
-1
  6
ByLayer
 10
10.8548333333333318
 20
58.5737666666666712
 30
0.0
 11
10.5107466666666642
 21
58.2296800000000019
 31
0.0
  0
LINE
  5
A6
100
AcDbEntity
100
AcDbLine
  8
etch
 62
256
370
-1
  6
ByLayer
 10
10.5107466666666642
 20
58.2296800000000019
 30
0.0
 11
10.1666626666666655
 21
57.713553333333337
 31
0.0
  0
LINE
  5
A7
100
AcDbEntity
100
AcDbLine
  8
etch
 62
256
370
-1
  6
ByLayer
 10
10.1666626666666655
 20
57.713553333333337
 30
0.0
 11
9.9946193333333309
 21
57.197420000000001
 31
0.0
  0
LINE
  5
A8
100
AcDbEntity
100
AcDbLine
  8
etch
 62
256
370
-1
  6
ByLayer
 10
9.9946193333333309
 20
57.197420000000001
 30
0.0
 11
9.8225766666666647
 21
56.5092533333333407
 31
0.0
  0
LINE
  5
A9
100
AcDbEntity
100
AcDbLine
  8
etch
 62
256
370
-1
  6
ByLayer
 10
9.8225766666666647
 20
56.5092533333333407
 30
0.0
 11
9.8225766666666647
 21
55.9931200000000047
 31
0.0
  0
LINE
  5
AA
100
AcDbEntity
100
AcDbLine
  8
etch
 62
256
370
-1
  6
ByLayer
 10
9.8225766666666647
 20
55.9931200000000047
 30
0.0
 11
9.9946193333333309
 21
55.4769926666666677
 31
0.0
  0
LINE
  5
AB
100
AcDbEntity
100
AcDbLine
  8
etch
 62
256
370
-1
  6
ByLayer
 10
9.9946193333333309
 20
55.4769926666666677
 30
0.0
 11
10.1666626666666655
 21
55.3049500000000052
 31
0.0
  0
LINE
  5
AC
100
AcDbEntity
100
AcDbLine
  8
etch
 62
256
370
-1
  6
ByLayer
 10
10.1666626666666655
 20
55.3049500000000052
 30
0.0
 11
10.5107466666666642
 21
55.1329066666666705
 31
0.0
  0
LINE
  5
AD
100
AcDbEntity
100
AcDbLine
  8
etch
 62
256
370
-1
  6
ByLayer
 10
-9.631726666666669
 20
52.6417266666666634
 30
0.0
 11
-9.4596866666666681
 21
52.6417266666666634
 31
0.0
  0
LINE
  5
AE
100
AcDbEntity
100
AcDbLine
  8
etch
 62
256
370
-1
  6
ByLayer
 10
-9.4596866666666681
 20
52.6417266666666634
 30
0.0
 11
-9.2876400000000015
 21
52.9858133333333328
 31
0.0
  0
LINE
  5
AF
100
AcDbEntity
100
AcDbLine
  8
etch
 62
256
370
-1
  6
ByLayer
 10
-9.2876400000000015
 20
52.9858133333333328
 30
0.0
 11
-9.4596866666666681
 21
51.9535533333333319
 31
0.0
  0
LINE
  5
B0
100
AcDbEntity
100
AcDbLine
  8
etch
 62
256
370
-1
  6
ByLayer
 10
-9.4596866666666681
 20
51.9535533333333319
 30
0.0
 11
-9.4596866666666681
 21
52.2976400000000012
 31
0.0
  0
LINE
  5
B1
100
AcDbEntity
100
AcDbLine
  8
etch
 62
256
370
-1
  6
ByLayer
 10
-9.4596866666666681
 20
52.2976400000000012
 30
0.0
 11
-9.631726666666669
 21
52.6417266666666634
 31
0.0
  0
LINE
  5
B2
100
AcDbEntity
100
AcDbLine
  8
etch
 62
256
370
-1
  6
ByLayer
 10
-9.631726666666669
 20
52.6417266666666634
 30
0.0
 11
-9.8037733333333357
 21
52.8137666666666661
 31
0.0
  0
LINE
  5
B3
100
AcDbEntity
100
AcDbLine
  8
etch
 62
256
370
-1
  6
ByLayer
 10
-9.8037733333333357
 20
52.8137666666666661
 30
0.0
 11
-10.3199000000000023
 21
52.9858133333333328
 31
0.0
  0
LINE
  5
B4
100
AcDbEntity
100
AcDbLine
  8
etch
 62
256
370
-1
  6
ByLayer
 10
-10.3199000000000023
 20
52.9858133333333328
 30
0.0
 11
-11.0080733333333338
 21
52.9858133333333328
 31
0.0
  0
LINE
  5
B5
100
AcDbEntity
100
AcDbLine
  8
etch
 62
256
370
-1
  6
ByLayer
 10
-11.0080733333333338
 20
52.9858133333333328
 30
0.0
 11
-11.5242000000000022
 21
52.8137666666666661
 31
0.0
  0
LINE
  5
B6
100
AcDbEntity
100
AcDbLine
  8
etch
 62
256
370
-1
  6
ByLayer
 10
-11.5242000000000022
 20
52.8137666666666661
 30
0.0
 11
-11.868286666666668
 21
52.4696799999999968
 31
0.0
  0
LINE
  5
B7
100
AcDbEntity
100
AcDbLine
  8
etch
 62
256
370
-1
  6
ByLayer
 10
-11.868286666666668
 20
52.4696799999999968
 30
0.0
 11
-11.868286666666668
 21
52.1255933333333346
 31
0.0
  0
LINE
  5
B8
100
AcDbEntity
100
AcDbLine
  8
etch
 62
256
370
-1
  6
ByLayer
 10
-11.868286666666668
 20
52.1255933333333346
 30
0.0
 11
-11.6962466666666689
 21
51.7815066666666652
 31
0.0
  0
LINE
  5
B9
100
AcDbEntity
100
AcDbLine
  8
etch
 62
256
370
-1
  6
ByLayer
 10
-11.6962466666666689
 20
51.7815066666666652
 30
0.0
 11
-11.5242000000000022
 21
51.6094666666666697
 31
0.0
  0
LINE
  5
BA
100
AcDbEntity
100
AcDbLine
  8
etch
 62
256
370
-1
  6
ByLayer
 10
-11.5242000000000022
 20
51.6094666666666697
 30
0.0
 11
-10.3199000000000023
 21
50.9212933333333311
 31
0.0
  0
LINE
  5
BB
100
AcDbEntity
100
AcDbLine
  8
etch
 62
256
370
-1
  6
ByLayer
 10
-10.3199000000000023
 20
50.9212933333333311
 30
0.0
 11
-9.9758133333333348
 21
50.5772066666666618
 31
0.0
  0
LINE
  5
BC
100
AcDbEntity
100
AcDbLine
  8
etch
 62
256
370
-1
  6
ByLayer
 10
-11.868286666666668
 20
52.1255933333333346
 30
0.0
 11
-11.5242000000000022
 21
51.7815066666666652
 31
0.0
  0
LINE
  5
BD
100
AcDbEntity
100
AcDbLine
  8
etch
 62
256
370
-1
  6
ByLayer
 10
-11.5242000000000022
 20
51.7815066666666652
 30
0.0
 11
-10.3199000000000023
 21
51.0933399999999978
 31
0.0
  0
LINE
  5
BE
100
AcDbEntity
100
AcDbLine
  8
etch
 62
256
370
-1
  6
ByLayer
 10
-10.3199000000000023
 20
51.0933399999999978
 30
0.0
 11
-10.1478600000000014
 21
50.9212933333333311
 31
0.0
  0
LINE
  5
BF
100
AcDbEntity
100
AcDbLine
  8
etch
 62
256
370
-1
  6
ByLayer
 10
-10.1478600000000014
 20
50.9212933333333311
 30
0.0
 11
-9.9758133333333348
 21
50.5772066666666618
 31
0.0
  0
LINE
  5
C0
100
AcDbEntity
100
AcDbLine
  8
etch
 62
256
370
-1
  6
ByLayer
 10
-9.9758133333333348
 20
50.5772066666666618
 30
0.0
 11
-9.9758133333333348
 21
50.0610799999999969
 31
0.0
  0
LINE
  5
C1
100
AcDbEntity
100
AcDbLine
  8
etch
 62
256
370
-1
  6
ByLayer
 10
-9.9758133333333348
 20
50.0610799999999969
 30
0.0
 11
-10.1478600000000014
 21
49.7169926666666626
 31
0.0
  0
LINE
  5
C2
100
AcDbEntity
100
AcDbLine
  8
etch
 62
256
370
-1
  6
ByLayer
 10
-10.1478600000000014
 20
49.7169926666666626
 30
0.0
 11
-10.3199000000000023
 21
49.5449500000000072
 31
0.0
  0
LINE
  5
C3
100
AcDbEntity
100
AcDbLine
  8
etch
 62
256
370
-1
  6
ByLayer
 10
-10.3199000000000023
 20
49.5449500000000072
 30
0.0
 11
-10.8360266666666671
 21
49.3729066666666654
 31
0.0
  0
LINE
  5
C4
100
AcDbEntity
100
AcDbLine
  8
etch
 62
256
370
-1
  6
ByLayer
 10
-10.8360266666666671
 20
49.3729066666666654
 30
0.0
 11
-11.5242000000000022
 21
49.3729066666666654
 31
0.0
  0
LINE
  5
C5
100
AcDbEntity
100
AcDbLine
  8
etch
 62
256
370
-1
  6
ByLayer
 10
-11.5242000000000022
 20
49.3729066666666654
 30
0.0
 11
-12.0403306666666676
 21
49.54495
 31
0.0
  0
LINE
  5
C6
100
AcDbEntity
100
AcDbLine
  8
etch
 62
256
370
-1
  6
ByLayer
 10
-12.0403306666666676
 20
49.54495
 30
0.0
 11
-12.2123740000000023
 21
49.7169926666666626
 31
0.0
  0
LINE
  5
C7
100
AcDbEntity
100
AcDbLine
  8
etch
 62
256
370
-1
  6
ByLayer
 10
-12.2123740000000023
 20
49.7169926666666626
 30
0.0
 11
-12.3844166666666684
 21
50.0610799999999969
 31
0.0
  0
LINE
  5
C8
100
AcDbEntity
100
AcDbLine
  8
etch
 62
256
370
-1
  6
ByLayer
 10
-12.3844166666666684
 20
50.0610799999999969
 30
0.0
 11
-12.3844166666666684
 21
50.4051666666666662
 31
0.0
  0
LINE
  5
C9
100
AcDbEntity
100
AcDbLine
  8
etch
 62
256
370
-1
  6
ByLayer
 10
-12.3844166666666684
 20
50.4051666666666662
 30
0.0
 11
-12.5564600000000013
 21
49.3729066666666654
 31
0.0
  0
LINE
  5
CA
100
AcDbEntity
100
AcDbLine
  8
etch
 62
256
370
-1
  6
ByLayer
 10
-12.5564600000000013
 20
49.3729066666666654
 30
0.0
 11
-12.3844166666666684
 21
49.7169926666666626
 31
0.0
  0
LINE
  5
CB
100
AcDbEntity
100
AcDbLine
  8
etch
 62
256
370
-1
  6
ByLayer
 10
-12.3844166666666684
 20
49.7169926666666626
 30
0.0
 11
-12.2123740000000023
 21
49.7169926666666626
 31
0.0
  0
LINE
  5
CC
100
AcDbEntity
100
AcDbLine
  8
etch
 62
256
370
-1
  6
ByLayer
 10
-7.2876400000000015
 20
51.0933399999999978
 30
0.0
 11
-7.1155966666666677
 21
51.4374199999999959
 31
0.0
  0
LINE
  5
CD
100
AcDbEntity
100
AcDbLine
  8
etch
 62
256
370
-1
  6
ByLayer
 10
-7.1155966666666677
 20
51.4374199999999959
 30
0.0
 11
-6.7715106666666687
 21
51.7815066666666652
 31
0.0
  0
LINE
  5
CE
100
AcDbEntity
100
AcDbLine
  8
etch
 62
256
370
-1
  6
ByLayer
 10
-6.7715106666666687
 20
51.7815066666666652
 30
0.0
 11
-6.2553800000000024
 21
51.7815066666666652
 31
0.0
  0
LINE
  5
CF
100
AcDbEntity
100
AcDbLine
  8
etch
 62
256
370
-1
  6
ByLayer
 10
-6.2553800000000024
 20
51.7815066666666652
 30
0.0
 11
-6.0833400000000015
 21
51.6094666666666697
 31
0.0
  0
LINE
  5
D0
100
AcDbEntity
100
AcDbLine
  8
etch
 62
256
370
-1
  6
ByLayer
 10
-6.0833400000000015
 20
51.6094666666666697
 30
0.0
 11
-6.0833400000000015
 21
51.0933399999999978
 31
0.0
  0
LINE
  5
D1
100
AcDbEntity
100
AcDbLine
  8
etch
 62
256
370
-1
  6
ByLayer
 10
-6.0833400000000015
 20
51.0933399999999978
 30
0.0
 11
-6.4274266666666682
 21
50.0610799999999969
 31
0.0
  0
LINE
  5
D2
100
AcDbEntity
100
AcDbLine
  8
etch
 62
256
370
-1
  6
ByLayer
 10
-6.4274266666666682
 20
50.0610799999999969
 30
0.0
 11
-6.4274266666666682
 21
49.7169926666666626
 31
0.0
  0
LINE
  5
D3
100
AcDbEntity
100
AcDbLine
  8
etch
 62
256
370
-1
  6
ByLayer
 10
-6.4274266666666682
 20
49.7169926666666626
 30
0.0
 11
-6.0833400000000015
 21
49.3729066666666654
 31
0.0
  0
LINE
  5
D4
100
AcDbEntity
100
AcDbLine
  8
etch
 62
256
370
-1
  6
ByLayer
 10
-6.4274266666666682
 20
51.7815066666666652
 30
0.0
 11
-6.2553800000000024
 21
51.6094666666666697
 31
0.0
  0
LINE
  5
D5
100
AcDbEntity
100
AcDbLine
  8
etch
 62
256
370
-1
  6
ByLayer
 10
-6.2553800000000024
 20
51.6094666666666697
 30
0.0
 11
-6.2553800000000024
 21
51.0933399999999978
 31
0.0
  0
LINE
  5
D6
100
AcDbEntity
100
AcDbLine
  8
etch
 62
256
370
-1
  6
ByLayer
 10
-6.2553800000000024
 20
51.0933399999999978
 30
0.0
 11
-6.5994666666666681
 21
50.0610799999999969
 31
0.0
  0
LINE
  5
D7
100
AcDbEntity
100
AcDbLine
  8
etch
 62
256
370
-1
  6
ByLayer
 10
-6.5994666666666681
 20
50.0610799999999969
 30
0.0
 11
-6.5994666666666681
 21
49.7169926666666626
 31
0.0
  0
LINE
  5
D8
100
AcDbEntity
100
AcDbLine
  8
etch
 62
256
370
-1
  6
ByLayer
 10
-6.5994666666666681
 20
49.7169926666666626
 30
0.0
 11
-6.4274266666666682
 21
49.54495
 31
0.0
  0
LINE
  5
D9
100
AcDbEntity
100
AcDbLine
  8
etch
 62
256
370
-1
  6
ByLayer
 10
-6.4274266666666682
 20
49.54495
 30
0.0
 11
-6.0833400000000015
 21
49.3729066666666654
 31
0.0
  0
LINE
  5
DA
100
AcDbEntity
100
AcDbLine
  8
etch
 62
256
370
-1
  6
ByLayer
 10
-6.0833400000000015
 20
49.3729066666666654
 30
0.0
 11
-5.7392533333333349
 21
49.3729066666666654
 31
0.0
  0
LINE
  5
DB
100
AcDbEntity
100
AcDbLine
  8
etch
 62
256
370
-1
  6
ByLayer
 10
-5.7392533333333349
 20
49.3729066666666654
 30
0.0
 11
-5.3951666666666682
 21
49.54495
 31
0.0
  0
LINE
  5
DC
100
AcDbEntity
100
AcDbLine
  8
etch
 62
256
370
-1
  6
ByLayer
 10
-5.3951666666666682
 20
49.54495
 30
0.0
 11
-5.0510800000000016
 21
49.8890359999999973
 31
0.0
  0
LINE
  5
DD
100
AcDbEntity
100
AcDbLine
  8
etch
 62
256
370
-1
  6
ByLayer
 10
-5.0510800000000016
 20
49.8890359999999973
 30
0.0
 11
-4.7069933333333349
 21
50.5772066666666618
 31
0.0
  0
LINE
  5
DE
100
AcDbEntity
100
AcDbLine
  8
etch
 62
256
370
-1
  6
ByLayer
 10
-4.3629066666666692
 20
51.7815066666666652
 30
0.0
 11
-4.7069933333333349
 21
50.5772066666666618
 31
0.0
  0
LINE
  5
DF
100
AcDbEntity
100
AcDbLine
  8
etch
 62
256
370
-1
  6
ByLayer
 10
-4.7069933333333349
 20
50.5772066666666618
 30
0.0
 11
-4.8790400000000016
 21
49.8890359999999973
 31
0.0
  0
LINE
  5
E0
100
AcDbEntity
100
AcDbLine
  8
etch
 62
256
370
-1
  6
ByLayer
 10
-4.8790400000000016
 20
49.8890359999999973
 30
0.0
 11
-4.8790400000000016
 21
49.54495
 31
0.0
  0
LINE
  5
E1
100
AcDbEntity
100
AcDbLine
  8
etch
 62
256
370
-1
  6
ByLayer
 10
-4.8790400000000016
 20
49.54495
 30
0.0
 11
-4.7069933333333349
 21
49.3729066666666654
 31
0.0
  0
LINE
  5
E2
100
AcDbEntity
100
AcDbLine
  8
etch
 62
256
370
-1
  6
ByLayer
 10
-4.7069933333333349
 20
49.3729066666666654
 30
0.0
 11
-4.1908666666666683
 21
49.3729066666666654
 31
0.0
  0
LINE
  5
E3
100
AcDbEntity
100
AcDbLine
  8
etch
 62
256
370
-1
  6
ByLayer
 10
-4.1908666666666683
 20
49.3729066666666654
 30
0.0
 11
-3.8467800000000016
 21
49.7169926666666626
 31
0.0
  0
LINE
  5
E4
100
AcDbEntity
100
AcDbLine
  8
etch
 62
256
370
-1
  6
ByLayer
 10
-3.8467800000000016
 20
49.7169926666666626
 30
0.0
 11
-3.674733333333335
 21
50.0610799999999969
 31
0.0
  0
LINE
  5
E5
100
AcDbEntity
100
AcDbLine
  8
etch
 62
256
370
-1
  6
ByLayer
 10
-4.1908666666666683
 20
51.7815066666666652
 30
0.0
 11
-4.5349533333333349
 21
50.5772066666666618
 31
0.0
  0
LINE
  5
E6
100
AcDbEntity
100
AcDbLine
  8
etch
 62
256
370
-1
  6
ByLayer
 10
-4.5349533333333349
 20
50.5772066666666618
 30
0.0
 11
-4.7069933333333349
 21
49.8890359999999973
 31
0.0
  0
LINE
  5
E7
100
AcDbEntity
100
AcDbLine
  8
etch
 62
256
370
-1
  6
ByLayer
 10
-4.7069933333333349
 20
49.8890359999999973
 30
0.0
 11
-4.7069933333333349
 21
49.54495
 31
0.0
  0
LINE
  5
E8
100
AcDbEntity
100
AcDbLine
  8
etch
 62
256
370
-1
  6
ByLayer
 10
-4.7069933333333349
 20
49.54495
 30
0.0
 11
-4.5349533333333349
 21
49.3729066666666654
 31
0.0
  0
LINE
  5
E9
100
AcDbEntity
100
AcDbLine
  8
etch
 62
256
370
-1
  6
ByLayer
 10
-1.3306473333333346
 20
51.0933399999999978
 30
0.0
 11
-1.1586040000000011
 21
51.4374199999999959
 31
0.0
  0
LINE
  5
EA
100
AcDbEntity
100
AcDbLine
  8
etch
 62
256
370
-1
  6
ByLayer
 10
-1.1586040000000011
 20
51.4374199999999959
 30
0.0
 11
-0.8145200000000015
 21
51.7815066666666652
 31
0.0
  0
LINE
  5
EB
100
AcDbEntity
100
AcDbLine
  8
etch
 62
256
370
-1
  6
ByLayer
 10
-0.8145200000000015
 20
51.7815066666666652
 30
0.0
 11
-0.2983866666666679
 21
51.7815066666666652
 31
0.0
  0
LINE
  5
EC
100
AcDbEntity
100
AcDbLine
  8
etch
 62
256
370
-1
  6
ByLayer
 10
-0.2983866666666679
 20
51.7815066666666652
 30
0.0
 11
-0.1263466666666679
 21
51.6094666666666697
 31
0.0
  0
LINE
  5
ED
100
AcDbEntity
100
AcDbLine
  8
etch
 62
256
370
-1
  6
ByLayer
 10
-0.1263466666666679
 20
51.6094666666666697
 30
0.0
 11
-0.1263466666666679
 21
51.2653800000000004
 31
0.0
  0
LINE
  5
EE
100
AcDbEntity
100
AcDbLine
  8
etch
 62
256
370
-1
  6
ByLayer
 10
-0.1263466666666679
 20
51.2653800000000004
 30
0.0
 11
-0.2983866666666679
 21
50.5772066666666618
 31
0.0
  0
LINE
  5
EF
100
AcDbEntity
100
AcDbLine
  8
etch
 62
256
370
-1
  6
ByLayer
 10
-0.2983866666666679
 20
50.5772066666666618
 30
0.0
 11
-0.9865600000000009
 21
48.168606666666669
 31
0.0
  0
LINE
  5
F0
100
AcDbEntity
100
AcDbLine
  8
etch
 62
256
370
-1
  6
ByLayer
 10
-0.4704333333333344
 20
51.7815066666666652
 30
0.0
 11
-0.2983866666666679
 21
51.6094666666666697
 31
0.0
  0
LINE
  5
F1
100
AcDbEntity
100
AcDbLine
  8
etch
 62
256
370
-1
  6
ByLayer
 10
-0.2983866666666679
 20
51.6094666666666697
 30
0.0
 11
-0.2983866666666679
 21
51.2653800000000004
 31
0.0
  0
LINE
  5
F2
100
AcDbEntity
100
AcDbLine
  8
etch
 62
256
370
-1
  6
ByLayer
 10
-0.2983866666666679
 20
51.2653800000000004
 30
0.0
 11
-0.4704333333333346
 21
50.5772066666666618
 31
0.0
  0
LINE
  5
F3
100
AcDbEntity
100
AcDbLine
  8
etch
 62
256
370
-1
  6
ByLayer
 10
-0.4704333333333346
 20
50.5772066666666618
 30
0.0
 11
-1.1586040000000013
 21
48.168606666666669
 31
0.0
  0
LINE
  5
F4
100
AcDbEntity
100
AcDbLine
  8
etch
 62
256
370
-1
  6
ByLayer
 10
-0.2983866666666679
 20
50.5772066666666618
 30
0.0
 11
-0.1263466666666679
 21
51.0933399999999978
 31
0.0
  0
LINE
  5
F5
100
AcDbEntity
100
AcDbLine
  8
etch
 62
256
370
-1
  6
ByLayer
 10
-0.1263466666666679
 20
51.0933399999999978
 30
0.0
 11
0.2177399999999985
 21
51.6094666666666697
 31
0.0
  0
LINE
  5
F6
100
AcDbEntity
100
AcDbLine
  8
etch
 62
256
370
-1
  6
ByLayer
 10
0.2177399999999985
 20
51.6094666666666697
 30
0.0
 11
0.5618266666666654
 21
51.7815066666666652
 31
0.0
  0
LINE
  5
F7
100
AcDbEntity
100
AcDbLine
  8
etch
 62
256
370
-1
  6
ByLayer
 10
0.5618266666666654
 20
51.7815066666666652
 30
0.0
 11
0.905913333333332
 21
51.7815066666666652
 31
0.0
  0
LINE
  5
F8
100
AcDbEntity
100
AcDbLine
  8
etch
 62
256
370
-1
  6
ByLayer
 10
0.905913333333332
 20
51.7815066666666652
 30
0.0
 11
1.2499999999999987
 21
51.6094666666666697
 31
0.0
  0
LINE
  5
F9
100
AcDbEntity
100
AcDbLine
  8
etch
 62
256
370
-1
  6
ByLayer
 10
1.2499999999999987
 20
51.6094666666666697
 30
0.0
 11
1.4220399999999986
 21
51.4374199999999959
 31
0.0
  0
LINE
  5
FA
100
AcDbEntity
100
AcDbLine
  8
etch
 62
256
370
-1
  6
ByLayer
 10
1.4220399999999986
 20
51.4374199999999959
 30
0.0
 11
1.5940866666666658
 21
51.0933399999999978
 31
0.0
  0
LINE
  5
FB
100
AcDbEntity
100
AcDbLine
  8
etch
 62
256
370
-1
  6
ByLayer
 10
1.5940866666666658
 20
51.0933399999999978
 30
0.0
 11
1.5940866666666653
 21
50.5772066666666618
 31
0.0
  0
LINE
  5
FC
100
AcDbEntity
100
AcDbLine
  8
etch
 62
256
370
-1
  6
ByLayer
 10
1.5940866666666653
 20
50.5772066666666618
 30
0.0
 11
1.4220399999999986
 21
50.0610799999999969
 31
0.0
  0
LINE
  5
FD
100
AcDbEntity
100
AcDbLine
  8
etch
 62
256
370
-1
  6
ByLayer
 10
1.4220399999999986
 20
50.0610799999999969
 30
0.0
 11
1.077953333333332
 21
49.5449499999999929
 31
0.0
  0
LINE
  5
FE
100
AcDbEntity
100
AcDbLine
  8
etch
 62
256
370
-1
  6
ByLayer
 10
1.077953333333332
 20
49.5449499999999929
 30
0.0
 11
0.5618266666666654
 21
49.3729066666666654
 31
0.0
  0
LINE
  5
FF
100
AcDbEntity
100
AcDbLine
  8
etch
 62
256
370
-1
  6
ByLayer
 10
0.5618266666666654
 20
49.3729066666666654
 30
0.0
 11
0.2177399999999987
 21
49.3729066666666654
 31
0.0
  0
LINE
  5
100
100
AcDbEntity
100
AcDbLine
  8
etch
 62
256
370
-1
  6
ByLayer
 10
0.2177399999999987
 20
49.3729066666666654
 30
0.0
 11
-0.1263466666666679
 21
49.54495
 31
0.0
  0
LINE
  5
101
100
AcDbEntity
100
AcDbLine
  8
etch
 62
256
370
-1
  6
ByLayer
 10
-0.1263466666666679
 20
49.54495
 30
0.0
 11
-0.2983866666666679
 21
50.0610799999999969
 31
0.0
  0
LINE
  5
102
100
AcDbEntity
100
AcDbLine
  8
etch
 62
256
370
-1
  6
ByLayer
 10
-0.2983866666666679
 20
50.0610799999999969
 30
0.0
 11
-0.2983866666666679
 21
50.5772066666666618
 31
0.0
  0
LINE
  5
103
100
AcDbEntity
100
AcDbLine
  8
etch
 62
256
370
-1
  6
ByLayer
 10
1.2499999999999987
 20
51.6094666666666697
 30
0.0
 11
1.4220399999999986
 21
51.2653800000000004
 31
0.0
  0
LINE
  5
104
100
AcDbEntity
100
AcDbLine
  8
etch
 62
256
370
-1
  6
ByLayer
 10
1.4220399999999986
 20
51.2653800000000004
 30
0.0
 11
1.4220399999999986
 21
50.5772066666666618
 31
0.0
  0
LINE
  5
105
100
AcDbEntity
100
AcDbLine
  8
etch
 62
256
370
-1
  6
ByLayer
 10
1.4220399999999986
 20
50.5772066666666618
 30
0.0
 11
1.2499999999999987
 21
50.0610799999999969
 31
0.0
  0
LINE
  5
106
100
AcDbEntity
100
AcDbLine
  8
etch
 62
256
370
-1
  6
ByLayer
 10
1.2499999999999987
 20
50.0610799999999969
 30
0.0
 11
0.905913333333332
 21
49.54495
 31
0.0
  0
LINE
  5
107
100
AcDbEntity
100
AcDbLine
  8
etch
 62
256
370
-1
  6
ByLayer
 10
0.905913333333332
 20
49.54495
 30
0.0
 11
0.5618266666666654
 21
49.3729066666666654
 31
0.0
  0
LINE
  5
108
100
AcDbEntity
100
AcDbLine
  8
etch
 62
256
370
-1
  6
ByLayer
 10
-1.6747333333333347
 20
48.168606666666669
 30
0.0
 11
-0.4704333333333346
 21
48.168606666666669
 31
0.0
  0
LINE
  5
109
100
AcDbEntity
100
AcDbLine
  8
etch
 62
256
370
-1
  6
ByLayer
 10
3.9381726666666661
 20
51.0933399999999978
 30
0.0
 11
4.1102159999999985
 21
51.4374199999999959
 31
0.0
  0
LINE
  5
10A
100
AcDbEntity
100
AcDbLine
  8
etch
 62
256
370
-1
  6
ByLayer
 10
4.1102159999999985
 20
51.4374199999999959
 30
0.0
 11
4.454299999999999
 21
51.7815066666666652
 31
0.0
  0
LINE
  5
10B
100
AcDbEntity
100
AcDbLine
  8
etch
 62
256
370
-1
  6
ByLayer
 10
4.454299999999999
 20
51.7815066666666652
 30
0.0
 11
4.9704333333333324
 21
51.7815066666666652
 31
0.0
  0
LINE
  5
10C
100
AcDbEntity
100
AcDbLine
  8
etch
 62
256
370
-1
  6
ByLayer
 10
4.9704333333333324
 20
51.7815066666666652
 30
0.0
 11
5.1424733333333323
 21
51.6094666666666697
 31
0.0
  0
LINE
  5
10D
100
AcDbEntity
100
AcDbLine
  8
etch
 62
256
370
-1
  6
ByLayer
 10
5.1424733333333323
 20
51.6094666666666697
 30
0.0
 11
5.1424733333333323
 21
51.2653800000000004
 31
0.0
  0
LINE
  5
10E
100
AcDbEntity
100
AcDbLine
  8
etch
 62
256
370
-1
  6
ByLayer
 10
5.1424733333333323
 20
51.2653800000000004
 30
0.0
 11
4.9704333333333324
 21
50.5772066666666618
 31
0.0
  0
LINE
  5
10F
100
AcDbEntity
100
AcDbLine
  8
etch
 62
256
370
-1
  6
ByLayer
 10
4.9704333333333324
 20
50.5772066666666618
 30
0.0
 11
4.2822599999999991
 21
48.168606666666669
 31
0.0
  0
LINE
  5
110
100
AcDbEntity
100
AcDbLine
  8
etch
 62
256
370
-1
  6
ByLayer
 10
4.7983866666666657
 20
51.7815066666666652
 30
0.0
 11
4.9704333333333324
 21
51.6094666666666697
 31
0.0
  0
LINE
  5
111
100
AcDbEntity
100
AcDbLine
  8
etch
 62
256
370
-1
  6
ByLayer
 10
4.9704333333333324
 20
51.6094666666666697
 30
0.0
 11
4.9704333333333324
 21
51.2653800000000004
 31
0.0
  0
LINE
  5
112
100
AcDbEntity
100
AcDbLine
  8
etch
 62
256
370
-1
  6
ByLayer
 10
4.9704333333333324
 20
51.2653800000000004
 30
0.0
 11
4.7983866666666657
 21
50.5772066666666618
 31
0.0
  0
LINE
  5
113
100
AcDbEntity
100
AcDbLine
  8
etch
 62
256
370
-1
  6
ByLayer
 10
4.7983866666666657
 20
50.5772066666666618
 30
0.0
 11
4.1102159999999976
 21
48.168606666666669
 31
0.0
  0
LINE
  5
114
100
AcDbEntity
100
AcDbLine
  8
etch
 62
256
370
-1
  6
ByLayer
 10
4.9704333333333324
 20
50.5772066666666618
 30
0.0
 11
5.1424733333333323
 21
51.0933399999999978
 31
0.0
  0
LINE
  5
115
100
AcDbEntity
100
AcDbLine
  8
etch
 62
256
370
-1
  6
ByLayer
 10
5.1424733333333323
 20
51.0933399999999978
 30
0.0
 11
5.486559999999999
 21
51.6094666666666697
 31
0.0
  0
LINE
  5
116
100
AcDbEntity
100
AcDbLine
  8
etch
 62
256
370
-1
  6
ByLayer
 10
5.486559999999999
 20
51.6094666666666697
 30
0.0
 11
5.8306466666666648
 21
51.7815066666666652
 31
0.0
  0
LINE
  5
117
100
AcDbEntity
100
AcDbLine
  8
etch
 62
256
370
-1
  6
ByLayer
 10
5.8306466666666648
 20
51.7815066666666652
 30
0.0
 11
6.1747333333333323
 21
51.7815066666666652
 31
0.0
  0
LINE
  5
118
100
AcDbEntity
100
AcDbLine
  8
etch
 62
256
370
-1
  6
ByLayer
 10
6.1747333333333323
 20
51.7815066666666652
 30
0.0
 11
6.5188199999999989
 21
51.6094666666666697
 31
0.0
  0
LINE
  5
119
100
AcDbEntity
100
AcDbLine
  8
etch
 62
256
370
-1
  6
ByLayer
 10
6.5188199999999989
 20
51.6094666666666697
 30
0.0
 11
6.6908599999999989
 21
51.4374199999999959
 31
0.0
  0
LINE
  5
11A
100
AcDbEntity
100
AcDbLine
  8
etch
 62
256
370
-1
  6
ByLayer
 10
6.6908599999999989
 20
51.4374199999999959
 30
0.0
 11
6.8629066666666656
 21
51.0933399999999978
 31
0.0
  0
LINE
  5
11B
100
AcDbEntity
100
AcDbLine
  8
etch
 62
256
370
-1
  6
ByLayer
 10
6.8629066666666656
 20
51.0933399999999978
 30
0.0
 11
6.8629066666666656
 21
50.5772066666666618
 31
0.0
  0
LINE
  5
11C
100
AcDbEntity
100
AcDbLine
  8
etch
 62
256
370
-1
  6
ByLayer
 10
6.8629066666666656
 20
50.5772066666666618
 30
0.0
 11
6.6908599999999989
 21
50.0610799999999969
 31
0.0
  0
LINE
  5
11D
100
AcDbEntity
100
AcDbLine
  8
etch
 62
256
370
-1
  6
ByLayer
 10
6.6908599999999989
 20
50.0610799999999969
 30
0.0
 11
6.3467733333333323
 21
49.5449499999999929
 31
0.0
  0
LINE
  5
11E
100
AcDbEntity
100
AcDbLine
  8
etch
 62
256
370
-1
  6
ByLayer
 10
6.3467733333333323
 20
49.5449499999999929
 30
0.0
 11
5.8306466666666648
 21
49.3729066666666654
 31
0.0
  0
LINE
  5
11F
100
AcDbEntity
100
AcDbLine
  8
etch
 62
256
370
-1
  6
ByLayer
 10
5.8306466666666648
 20
49.3729066666666654
 30
0.0
 11
5.486559999999999
 21
49.3729066666666654
 31
0.0
  0
LINE
  5
120
100
AcDbEntity
100
AcDbLine
  8
etch
 62
256
370
-1
  6
ByLayer
 10
5.486559999999999
 20
49.3729066666666654
 30
0.0
 11
5.1424733333333323
 21
49.54495
 31
0.0
  0
LINE
  5
121
100
AcDbEntity
100
AcDbLine
  8
etch
 62
256
370
-1
  6
ByLayer
 10
5.1424733333333323
 20
49.54495
 30
0.0
 11
4.9704333333333324
 21
50.0610799999999969
 31
0.0
  0
LINE
  5
122
100
AcDbEntity
100
AcDbLine
  8
etch
 62
256
370
-1
  6
ByLayer
 10
4.9704333333333324
 20
50.0610799999999969
 30
0.0
 11
4.9704333333333324
 21
50.5772066666666618
 31
0.0
  0
LINE
  5
123
100
AcDbEntity
100
AcDbLine
  8
etch
 62
256
370
-1
  6
ByLayer
 10
6.5188199999999989
 20
51.6094666666666697
 30
0.0
 11
6.6908599999999989
 21
51.2653800000000004
 31
0.0
  0
LINE
  5
124
100
AcDbEntity
100
AcDbLine
  8
etch
 62
256
370
-1
  6
ByLayer
 10
6.6908599999999989
 20
51.2653800000000004
 30
0.0
 11
6.6908599999999989
 21
50.5772066666666618
 31
0.0
  0
LINE
  5
125
100
AcDbEntity
100
AcDbLine
  8
etch
 62
256
370
-1
  6
ByLayer
 10
6.6908599999999989
 20
50.5772066666666618
 30
0.0
 11
6.5188199999999989
 21
50.0610799999999969
 31
0.0
  0
LINE
  5
126
100
AcDbEntity
100
AcDbLine
  8
etch
 62
256
370
-1
  6
ByLayer
 10
6.5188199999999989
 20
50.0610799999999969
 30
0.0
 11
6.1747333333333323
 21
49.54495
 31
0.0
  0
LINE
  5
127
100
AcDbEntity
100
AcDbLine
  8
etch
 62
256
370
-1
  6
ByLayer
 10
6.1747333333333323
 20
49.54495
 30
0.0
 11
5.8306466666666648
 21
49.3729066666666654
 31
0.0
  0
LINE
  5
128
100
AcDbEntity
100
AcDbLine
  8
etch
 62
256
370
-1
  6
ByLayer
 10
3.5940866666666658
 20
48.168606666666669
 30
0.0
 11
4.7983866666666657
 21
48.168606666666669
 31
0.0
  0
LINE
  5
129
100
AcDbEntity
100
AcDbLine
  8
etch
 62
256
370
-1
  6
ByLayer
 10
9.7231200000000015
 20
52.9858133333333328
 30
0.0
 11
9.034950000000002
 21
50.5772066666666618
 31
0.0
  0
LINE
  5
12A
100
AcDbEntity
100
AcDbLine
  8
etch
 62
256
370
-1
  6
ByLayer
 10
9.034950000000002
 20
50.5772066666666618
 30
0.0
 11
8.8629066666666692
 21
49.8890359999999973
 31
0.0
  0
LINE
  5
12B
100
AcDbEntity
100
AcDbLine
  8
etch
 62
256
370
-1
  6
ByLayer
 10
8.8629066666666692
 20
49.8890359999999973
 30
0.0
 11
8.8629066666666692
 21
49.54495
 31
0.0
  0
LINE
  5
12C
100
AcDbEntity
100
AcDbLine
  8
etch
 62
256
370
-1
  6
ByLayer
 10
8.8629066666666692
 20
49.54495
 30
0.0
 11
9.034950000000002
 21
49.3729066666666654
 31
0.0
  0
LINE
  5
12D
100
AcDbEntity
100
AcDbLine
  8
etch
 62
256
370
-1
  6
ByLayer
 10
9.034950000000002
 20
49.3729066666666654
 30
0.0
 11
9.5510800000000025
 21
49.3729066666666654
 31
0.0
  0
LINE
  5
12E
100
AcDbEntity
100
AcDbLine
  8
etch
 62
256
370
-1
  6
ByLayer
 10
9.5510800000000025
 20
49.3729066666666654
 30
0.0
 11
9.8951666666666682
 21
49.7169926666666626
 31
0.0
  0
LINE
  5
12F
100
AcDbEntity
100
AcDbLine
  8
etch
 62
256
370
-1
  6
ByLayer
 10
9.8951666666666682
 20
49.7169926666666626
 30
0.0
 11
10.0672066666666691
 21
50.0610799999999969
 31
0.0
  0
LINE
  5
130
100
AcDbEntity
100
AcDbLine
  8
etch
 62
256
370
-1
  6
ByLayer
 10
9.8951666666666682
 20
52.9858133333333328
 30
0.0
 11
9.2069926666666682
 21
50.5772066666666618
 31
0.0
  0
LINE
  5
131
100
AcDbEntity
100
AcDbLine
  8
etch
 62
256
370
-1
  6
ByLayer
 10
9.2069926666666682
 20
50.5772066666666618
 30
0.0
 11
9.034950000000002
 21
49.8890359999999973
 31
0.0
  0
LINE
  5
132
100
AcDbEntity
100
AcDbLine
  8
etch
 62
256
370
-1
  6
ByLayer
 10
9.034950000000002
 20
49.8890359999999973
 30
0.0
 11
9.034950000000002
 21
49.54495
 31
0.0
  0
LINE
  5
133
100
AcDbEntity
100
AcDbLine
  8
etch
 62
256
370
-1
  6
ByLayer
 10
9.034950000000002
 20
49.54495
 30
0.0
 11
9.2069926666666682
 21
49.3729066666666654
 31
0.0
  0
LINE
  5
134
100
AcDbEntity
100
AcDbLine
  8
etch
 62
256
370
-1
  6
ByLayer
 10
9.2069926666666682
 20
52.9858133333333328
 30
0.0
 11
9.8951666666666682
 21
52.9858133333333328
 31
0.0
  0
LINE
  5
135
100
AcDbEntity
100
AcDbLine
  8
etch
 62
256
370
-1
  6
ByLayer
 10
12.0672066666666673
 20
51.0933399999999978
 30
0.0
 11
12.2392500000000002
 21
51.4374199999999959
 31
0.0
  0
LINE
  5
136
100
AcDbEntity
100
AcDbLine
  8
etch
 62
256
370
-1
  6
ByLayer
 10
12.2392500000000002
 20
51.4374199999999959
 30
0.0
 11
12.583336000000001
 21
51.7815066666666652
 31
0.0
  0
LINE
  5
137
100
AcDbEntity
100
AcDbLine
  8
etch
 62
256
370
-1
  6
ByLayer
 10
12.583336000000001
 20
51.7815066666666652
 30
0.0
 11
13.0994666666666664
 21
51.7815066666666652
 31
0.0
  0
LINE
  5
138
100
AcDbEntity
100
AcDbLine
  8
etch
 62
256
370
-1
  6
ByLayer
 10
13.0994666666666664
 20
51.7815066666666652
 30
0.0
 11
13.2715066666666672
 21
51.6094666666666697
 31
0.0
  0
LINE
  5
139
100
AcDbEntity
100
AcDbLine
  8
etch
 62
256
370
-1
  6
ByLayer
 10
13.2715066666666672
 20
51.6094666666666697
 30
0.0
 11
13.2715066666666672
 21
51.0933399999999978
 31
0.0
  0
LINE
  5
13A
100
AcDbEntity
100
AcDbLine
  8
etch
 62
256
370
-1
  6
ByLayer
 10
13.2715066666666672
 20
51.0933399999999978
 30
0.0
 11
12.9274199999999997
 21
50.0610799999999969
 31
0.0
  0
LINE
  5
13B
100
AcDbEntity
100
AcDbLine
  8
etch
 62
256
370
-1
  6
ByLayer
 10
12.9274199999999997
 20
50.0610799999999969
 30
0.0
 11
12.9274199999999997
 21
49.7169926666666626
 31
0.0
  0
LINE
  5
13C
100
AcDbEntity
100
AcDbLine
  8
etch
 62
256
370
-1
  6
ByLayer
 10
12.9274199999999997
 20
49.7169926666666626
 30
0.0
 11
13.2715066666666672
 21
49.3729066666666654
 31
0.0
  0
LINE
  5
13D
100
AcDbEntity
100
AcDbLine
  8
etch
 62
256
370
-1
  6
ByLayer
 10
12.9274199999999997
 20
51.7815066666666652
 30
0.0
 11
13.0994666666666664
 21
51.6094666666666697
 31
0.0
  0
LINE
  5
13E
100
AcDbEntity
100
AcDbLine
  8
etch
 62
256
370
-1
  6
ByLayer
 10
13.0994666666666664
 20
51.6094666666666697
 30
0.0
 11
13.0994666666666664
 21
51.0933399999999978
 31
0.0
  0
LINE
  5
13F
100
AcDbEntity
100
AcDbLine
  8
etch
 62
256
370
-1
  6
ByLayer
 10
13.0994666666666664
 20
51.0933399999999978
 30
0.0
 11
12.7553800000000006
 21
50.0610799999999969
 31
0.0
  0
LINE
  5
140
100
AcDbEntity
100
AcDbLine
  8
etch
 62
256
370
-1
  6
ByLayer
 10
12.7553800000000006
 20
50.0610799999999969
 30
0.0
 11
12.7553800000000006
 21
49.7169926666666626
 31
0.0
  0
LINE
  5
141
100
AcDbEntity
100
AcDbLine
  8
etch
 62
256
370
-1
  6
ByLayer
 10
12.7553800000000006
 20
49.7169926666666626
 30
0.0
 11
12.9274199999999997
 21
49.54495
 31
0.0
  0
LINE
  5
142
100
AcDbEntity
100
AcDbLine
  8
etch
 62
256
370
-1
  6
ByLayer
 10
12.9274199999999997
 20
49.54495
 30
0.0
 11
13.2715066666666672
 21
49.3729066666666654
 31
0.0
  0
LINE
  5
143
100
AcDbEntity
100
AcDbLine
  8
etch
 62
256
370
-1
  6
ByLayer
 10
13.2715066666666672
 20
49.3729066666666654
 30
0.0
 11
13.6155933333333348
 21
49.3729066666666654
 31
0.0
  0
LINE
  5
144
100
AcDbEntity
100
AcDbLine
  8
etch
 62
256
370
-1
  6
ByLayer
 10
13.6155933333333348
 20
49.3729066666666654
 30
0.0
 11
13.9596800000000005
 21
49.54495
 31
0.0
  0
LINE
  5
145
100
AcDbEntity
100
AcDbLine
  8
etch
 62
256
370
-1
  6
ByLayer
 10
13.9596800000000005
 20
49.54495
 30
0.0
 11
14.3037666666666663
 21
49.8890359999999973
 31
0.0
  0
LINE
  5
146
100
AcDbEntity
100
AcDbLine
  8
etch
 62
256
370
-1
  6
ByLayer
 10
14.3037666666666663
 20
49.8890359999999973
 30
0.0
 11
14.6478533333333338
 21
50.5772066666666618
 31
0.0
  0
LINE
  5
147
100
AcDbEntity
100
AcDbLine
  8
etch
 62
256
370
-1
  6
ByLayer
 10
15.1639800000000005
 20
51.7815066666666652
 30
0.0
 11
14.4758066666666672
 21
49.3729066666666654
 31
0.0
  0
LINE
  5
148
100
AcDbEntity
100
AcDbLine
  8
etch
 62
256
370
-1
  6
ByLayer
 10
14.4758066666666672
 20
49.3729066666666654
 30
0.0
 11
14.3037666666666663
 21
48.8567773333333335
 31
0.0
  0
LINE
  5
149
100
AcDbEntity
100
AcDbLine
  8
etch
 62
256
370
-1
  6
ByLayer
 10
14.3037666666666663
 20
48.8567773333333335
 30
0.0
 11
13.9596800000000005
 21
48.3406466666666645
 31
0.0
  0
LINE
  5
14A
100
AcDbEntity
100
AcDbLine
  8
etch
 62
256
370
-1
  6
ByLayer
 10
13.9596800000000005
 20
48.3406466666666645
 30
0.0
 11
13.4435533333333339
 21
48.168606666666669
 31
0.0
  0
LINE
  5
14B
100
AcDbEntity
100
AcDbLine
  8
etch
 62
256
370
-1
  6
ByLayer
 10
13.4435533333333339
 20
48.168606666666669
 30
0.0
 11
12.9274199999999997
 21
48.168606666666669
 31
0.0
  0
LINE
  5
14C
100
AcDbEntity
100
AcDbLine
  8
etch
 62
256
370
-1
  6
ByLayer
 10
12.9274199999999997
 20
48.168606666666669
 30
0.0
 11
12.583336000000001
 21
48.3406466666666645
 31
0.0
  0
LINE
  5
14D
100
AcDbEntity
100
AcDbLine
  8
etch
 62
256
370
-1
  6
ByLayer
 10
12.583336000000001
 20
48.3406466666666645
 30
0.0
 11
12.4112926666666663
 21
48.5126933333333312
 31
0.0
  0
LINE
  5
14E
100
AcDbEntity
100
AcDbLine
  8
etch
 62
256
370
-1
  6
ByLayer
 10
12.4112926666666663
 20
48.5126933333333312
 30
0.0
 11
12.4112926666666663
 21
48.6847333333333339
 31
0.0
  0
LINE
  5
14F
100
AcDbEntity
100
AcDbLine
  8
etch
 62
256
370
-1
  6
ByLayer
 10
12.4112926666666663
 20
48.6847333333333339
 30
0.0
 11
12.583336000000001
 21
48.8567773333333335
 31
0.0
  0
LINE
  5
150
100
AcDbEntity
100
AcDbLine
  8
etch
 62
256
370
-1
  6
ByLayer
 10
12.583336000000001
 20
48.8567773333333335
 30
0.0
 11
12.7553800000000006
 21
48.6847333333333339
 31
0.0
  0
LINE
  5
151
100
AcDbEntity
100
AcDbLine
  8
etch
 62
256
370
-1
  6
ByLayer
 10
12.7553800000000006
 20
48.6847333333333339
 30
0.0
 11
12.583336000000001
 21
48.5126933333333312
 31
0.0
  0
LINE
  5
152
100
AcDbEntity
100
AcDbLine
  8
etch
 62
256
370
-1
  6
ByLayer
 10
14.9919399999999996
 20
51.7815066666666652
 30
0.0
 11
14.3037666666666663
 21
49.3729066666666654
 31
0.0
  0
LINE
  5
153
100
AcDbEntity
100
AcDbLine
  8
etch
 62
256
370
-1
  6
ByLayer
 10
14.3037666666666663
 20
49.3729066666666654
 30
0.0
 11
14.1317199999999996
 21
48.8567773333333335
 31
0.0
  0
LINE
  5
154
100
AcDbEntity
100
AcDbLine
  8
etch
 62
256
370
-1
  6
ByLayer
 10
14.1317199999999996
 20
48.8567773333333335
 30
0.0
 11
13.7876400000000015
 21
48.3406466666666645
 31
0.0
  0
LINE
  5
155
100
AcDbEntity
100
AcDbLine
  8
etch
 62
256
370
-1
  6
ByLayer
 10
13.7876400000000015
 20
48.3406466666666645
 30
0.0
 11
13.4435533333333339
 21
48.168606666666669
 31
0.0
  0
LINE
  5
156
100
AcDbEntity
100
AcDbLine
  8
etch
 62
256
370
-1
  6
ByLayer
 10
-12.1397866666666623
 20
18.6847333333333339
 30
0.0
 11
-13.0000033333333285
 21
15.7600000000000016
 31
0.0
  0
LINE
  5
157
100
AcDbEntity
100
AcDbLine
  8
etch
 62
256
370
-1
  6
ByLayer
 10
-11.7956999999999947
 20
19.3729066666666689
 30
0.0
 11
-12.8279606666666623
 21
15.7600000000000016
 31
0.0
  0
LINE
  5
158
100
AcDbEntity
100
AcDbLine
  8
etch
 62
256
370
-1
  6
ByLayer
 10
-11.7956999999999947
 20
19.3729066666666689
 30
0.0
 11
-12.311833333333329
 21
18.8567733333333365
 31
0.0
  0
LINE
  5
159
100
AcDbEntity
100
AcDbLine
  8
etch
 62
256
370
-1
  6
ByLayer
 10
-12.311833333333329
 20
18.8567733333333365
 30
0.0
 11
-12.8279606666666623
 21
18.5126866666666672
 31
0.0
  0
LINE
  5
15A
100
AcDbEntity
100
AcDbLine
  8
etch
 62
256
370
-1
  6
ByLayer
 10
-12.8279606666666623
 20
18.5126866666666672
 30
0.0
 11
-13.1720466666666614
 21
18.3406466666666681
 31
0.0
  0
LINE
  5
15B
100
AcDbEntity
100
AcDbLine
  8
etch
 62
256
370
-1
  6
ByLayer
 10
-11.9677466666666614
 20
18.8567733333333365
 30
0.0
 11
-12.6559173333333277
 21
18.5126866666666672
 31
0.0
  0
LINE
  5
15C
100
AcDbEntity
100
AcDbLine
  8
etch
 62
256
370
-1
  6
ByLayer
 10
-12.6559173333333277
 20
18.5126866666666672
 30
0.0
 11
-13.1720466666666614
 21
18.3406466666666681
 31
0.0
  0
LINE
  5
15D
100
AcDbEntity
100
AcDbLine
  8
etch
 62
256
370
-1
  6
ByLayer
 10
-8.7634399999999975
 20
18.6847333333333339
 30
0.0
 11
-8.5913999999999966
 21
18.5126866666666672
 31
0.0
  0
LINE
  5
15E
100
AcDbEntity
100
AcDbLine
  8
etch
 62
256
370
-1
  6
ByLayer
 10
-8.5913999999999966
 20
18.5126866666666672
 30
0.0
 11
-8.7634399999999975
 21
18.3406466666666645
 31
0.0
  0
LINE
  5
15F
100
AcDbEntity
100
AcDbLine
  8
etch
 62
256
370
-1
  6
ByLayer
 10
-8.7634399999999975
 20
18.3406466666666645
 30
0.0
 11
-8.9354866666666641
 21
18.5126866666666672
 31
0.0
  0
LINE
  5
160
100
AcDbEntity
100
AcDbLine
  8
etch
 62
256
370
-1
  6
ByLayer
 10
-8.9354866666666641
 20
18.5126866666666672
 30
0.0
 11
-8.9354866666666641
 21
18.6847333333333339
 31
0.0
  0
LINE
  5
161
100
AcDbEntity
100
AcDbLine
  8
etch
 62
256
370
-1
  6
ByLayer
 10
-8.9354866666666641
 20
18.6847333333333339
 30
0.0
 11
-8.7634399999999975
 21
19.0288199999999996
 31
0.0
  0
LINE
  5
162
100
AcDbEntity
100
AcDbLine
  8
etch
 62
256
370
-1
  6
ByLayer
 10
-8.7634399999999975
 20
19.0288199999999996
 30
0.0
 11
-8.5913999999999966
 21
19.2008599999999987
 31
0.0
  0
LINE
  5
163
100
AcDbEntity
100
AcDbLine
  8
etch
 62
256
370
-1
  6
ByLayer
 10
-8.5913999999999966
 20
19.2008599999999987
 30
0.0
 11
-8.0752666666666624
 21
19.3729066666666654
 31
0.0
  0
LINE
  5
164
100
AcDbEntity
100
AcDbLine
  8
etch
 62
256
370
-1
  6
ByLayer
 10
-8.0752666666666624
 20
19.3729066666666654
 30
0.0
 11
-7.5591399999999975
 21
19.3729066666666654
 31
0.0
  0
LINE
  5
165
100
AcDbEntity
100
AcDbLine
  8
etch
 62
256
370
-1
  6
ByLayer
 10
-7.5591399999999975
 20
19.3729066666666654
 30
0.0
 11
-7.04301333333333
 21
19.2008599999999987
 31
0.0
  0
LINE
  5
166
100
AcDbEntity
100
AcDbLine
  8
etch
 62
256
370
-1
  6
ByLayer
 10
-7.04301333333333
 20
19.2008599999999987
 30
0.0
 11
-6.8709666666666633
 21
18.8567733333333329
 31
0.0
  0
LINE
  5
167
100
AcDbEntity
100
AcDbLine
  8
etch
 62
256
370
-1
  6
ByLayer
 10
-6.8709666666666633
 20
18.8567733333333329
 30
0.0
 11
-6.8709666666666642
 21
18.5126866666666672
 31
0.0
  0
LINE
  5
168
100
AcDbEntity
100
AcDbLine
  8
etch
 62
256
370
-1
  6
ByLayer
 10
-6.8709666666666642
 20
18.5126866666666672
 30
0.0
 11
-7.0430133333333309
 21
18.1686000000000014
 31
0.0
  0
LINE
  5
169
100
AcDbEntity
100
AcDbLine
  8
etch
 62
256
370
-1
  6
ByLayer
 10
-7.0430133333333309
 20
18.1686000000000014
 30
0.0
 11
-7.3870999999999967
 21
17.8245133333333357
 31
0.0
  0
LINE
  5
16A
100
AcDbEntity
100
AcDbLine
  8
etch
 62
256
370
-1
  6
ByLayer
 10
-7.3870999999999967
 20
17.8245133333333357
 30
0.0
 11
-7.9032266666666633
 21
17.4804333333333339
 31
0.0
  0
LINE
  5
16B
100
AcDbEntity
100
AcDbLine
  8
etch
 62
256
370
-1
  6
ByLayer
 10
-7.9032266666666633
 20
17.4804333333333339
 30
0.0
 11
-8.5913999999999966
 21
17.1363466666666682
 31
0.0
  0
LINE
  5
16C
100
AcDbEntity
100
AcDbLine
  8
etch
 62
256
370
-1
  6
ByLayer
 10
-8.5913999999999966
 20
17.1363466666666682
 30
0.0
 11
-9.1075266666666632
 21
16.7922599999999989
 31
0.0
  0
LINE
  5
16D
100
AcDbEntity
100
AcDbLine
  8
etch
 62
256
370
-1
  6
ByLayer
 10
-9.1075266666666632
 20
16.7922599999999989
 30
0.0
 11
-9.4516139999999975
 21
16.4481733333333331
 31
0.0
  0
LINE
  5
16E
100
AcDbEntity
100
AcDbLine
  8
etch
 62
256
370
-1
  6
ByLayer
 10
-9.4516139999999975
 20
16.4481733333333331
 30
0.0
 11
-9.7956999999999965
 21
15.7599999999999998
 31
0.0
  0
LINE
  5
16F
100
AcDbEntity
100
AcDbLine
  8
etch
 62
256
370
-1
  6
ByLayer
 10
-7.5591399999999975
 20
19.3729066666666654
 30
0.0
 11
-7.21505333333333
 21
19.2008599999999987
 31
0.0
  0
LINE
  5
170
100
AcDbEntity
100
AcDbLine
  8
etch
 62
256
370
-1
  6
ByLayer
 10
-7.21505333333333
 20
19.2008599999999987
 30
0.0
 11
-7.0430133333333309
 21
18.8567733333333329
 31
0.0
  0
LINE
  5
171
100
AcDbEntity
100
AcDbLine
  8
etch
 62
256
370
-1
  6
ByLayer
 10
-7.0430133333333309
 20
18.8567733333333329
 30
0.0
 11
-7.04301333333333
 21
18.5126866666666672
 31
0.0
  0
LINE
  5
172
100
AcDbEntity
100
AcDbLine
  8
etch
 62
256
370
-1
  6
ByLayer
 10
-7.04301333333333
 20
18.5126866666666672
 30
0.0
 11
-7.21505333333333
 21
18.1686000000000014
 31
0.0
  0
LINE
  5
173
100
AcDbEntity
100
AcDbLine
  8
etch
 62
256
370
-1
  6
ByLayer
 10
-7.21505333333333
 20
18.1686000000000014
 30
0.0
 11
-7.5591399999999975
 21
17.8245133333333357
 31
0.0
  0
LINE
  5
174
100
AcDbEntity
100
AcDbLine
  8
etch
 62
256
370
-1
  6
ByLayer
 10
-7.5591399999999975
 20
17.8245133333333357
 30
0.0
 11
-8.5913999999999966
 21
17.1363466666666682
 31
0.0
  0
LINE
  5
175
100
AcDbEntity
100
AcDbLine
  8
etch
 62
256
370
-1
  6
ByLayer
 10
-9.6236566666666636
 20
16.1040860000000023
 30
0.0
 11
-9.4516139999999975
 21
16.2761293333333334
 31
0.0
  0
LINE
  5
176
100
AcDbEntity
100
AcDbLine
  8
etch
 62
256
370
-1
  6
ByLayer
 10
-9.4516139999999975
 20
16.2761293333333334
 30
0.0
 11
-9.1075266666666632
 21
16.2761293333333334
 31
0.0
  0
LINE
  5
177
100
AcDbEntity
100
AcDbLine
  8
etch
 62
256
370
-1
  6
ByLayer
 10
-9.1075266666666632
 20
16.2761293333333334
 30
0.0
 11
-8.2473133333333291
 21
15.9320433333333327
 31
0.0
  0
LINE
  5
178
100
AcDbEntity
100
AcDbLine
  8
etch
 62
256
370
-1
  6
ByLayer
 10
-8.2473133333333291
 20
15.9320433333333327
 30
0.0
 11
-7.7311866666666642
 21
15.9320433333333327
 31
0.0
  0
LINE
  5
179
100
AcDbEntity
100
AcDbLine
  8
etch
 62
256
370
-1
  6
ByLayer
 10
-7.7311866666666642
 20
15.9320433333333327
 30
0.0
 11
-7.3870999999999967
 21
16.1040860000000023
 31
0.0
  0
LINE
  5
17A
100
AcDbEntity
100
AcDbLine
  8
etch
 62
256
370
-1
  6
ByLayer
 10
-7.3870999999999967
 20
16.1040860000000023
 30
0.0
 11
-7.21505333333333
 21
16.4481733333333331
 31
0.0
  0
LINE
  5
17B
100
AcDbEntity
100
AcDbLine
  8
etch
 62
256
370
-1
  6
ByLayer
 10
-9.1075266666666632
 20
16.2761293333333334
 30
0.0
 11
-8.2473133333333291
 21
15.7599999999999998
 31
0.0
  0
LINE
  5
17C
100
AcDbEntity
100
AcDbLine
  8
etch
 62
256
370
-1
  6
ByLayer
 10
-8.2473133333333291
 20
15.7599999999999998
 30
0.0
 11
-7.7311866666666642
 21
15.7599999999999998
 31
0.0
  0
LINE
  5
17D
100
AcDbEntity
100
AcDbLine
  8
etch
 62
256
370
-1
  6
ByLayer
 10
-7.7311866666666642
 20
15.7599999999999998
 30
0.0
 11
-7.3870999999999967
 21
15.9320433333333309
 31
0.0
  0
LINE
  5
17E
100
AcDbEntity
100
AcDbLine
  8
etch
 62
256
370
-1
  6
ByLayer
 10
-7.3870999999999967
 20
15.9320433333333309
 30
0.0
 11
-7.21505333333333
 21
16.4481733333333331
 31
0.0
  0
LINE
  5
17F
100
AcDbEntity
100
AcDbLine
  8
etch
 62
256
370
-1
  6
ByLayer
 10
-3.3225799999999985
 20
19.3729066666666654
 30
0.0
 11
-3.8387066666666652
 21
19.2008599999999987
 31
0.0
  0
LINE
  5
180
100
AcDbEntity
100
AcDbLine
  8
etch
 62
256
370
-1
  6
ByLayer
 10
-3.8387066666666652
 20
19.2008599999999987
 30
0.0
 11
-4.1827933333333318
 21
18.8567733333333329
 31
0.0
  0
LINE
  5
181
100
AcDbEntity
100
AcDbLine
  8
etch
 62
256
370
-1
  6
ByLayer
 10
-4.1827933333333318
 20
18.8567733333333329
 30
0.0
 11
-4.5268806666666652
 21
18.3406466666666645
 31
0.0
  0
LINE
  5
182
100
AcDbEntity
100
AcDbLine
  8
etch
 62
256
370
-1
  6
ByLayer
 10
-4.5268806666666652
 20
18.3406466666666645
 30
0.0
 11
-4.6989233333333313
 21
17.8245133333333321
 31
0.0
  0
LINE
  5
183
100
AcDbEntity
100
AcDbLine
  8
etch
 62
256
370
-1
  6
ByLayer
 10
-4.6989233333333313
 20
17.8245133333333321
 30
0.0
 11
-4.8709666666666651
 21
17.1363466666666646
 31
0.0
  0
LINE
  5
184
100
AcDbEntity
100
AcDbLine
  8
etch
 62
256
370
-1
  6
ByLayer
 10
-4.8709666666666651
 20
17.1363466666666646
 30
0.0
 11
-4.8709666666666651
 21
16.6202133333333322
 31
0.0
  0
LINE
  5
185
100
AcDbEntity
100
AcDbLine
  8
etch
 62
256
370
-1
  6
ByLayer
 10
-4.8709666666666651
 20
16.6202133333333322
 30
0.0
 11
-4.6989233333333313
 21
16.1040859999999988
 31
0.0
  0
LINE
  5
186
100
AcDbEntity
100
AcDbLine
  8
etch
 62
256
370
-1
  6
ByLayer
 10
-4.6989233333333313
 20
16.1040859999999988
 30
0.0
 11
-4.5268806666666652
 21
15.9320433333333309
 31
0.0
  0
LINE
  5
187
100
AcDbEntity
100
AcDbLine
  8
etch
 62
256
370
-1
  6
ByLayer
 10
-4.5268806666666652
 20
15.9320433333333309
 30
0.0
 11
-4.1827933333333318
 21
15.759999999999998
 31
0.0
  0
LINE
  5
188
100
AcDbEntity
100
AcDbLine
  8
etch
 62
256
370
-1
  6
ByLayer
 10
-4.1827933333333318
 20
15.759999999999998
 30
0.0
 11
-3.8387066666666652
 21
15.759999999999998
 31
0.0
  0
LINE
  5
189
100
AcDbEntity
100
AcDbLine
  8
etch
 62
256
370
-1
  6
ByLayer
 10
-3.8387066666666652
 20
15.759999999999998
 30
0.0
 11
-3.3225799999999985
 21
15.9320433333333309
 31
0.0
  0
LINE
  5
18A
100
AcDbEntity
100
AcDbLine
  8
etch
 62
256
370
-1
  6
ByLayer
 10
-3.3225799999999985
 20
15.9320433333333309
 30
0.0
 11
-2.9784933333333319
 21
16.2761293333333334
 31
0.0
  0
LINE
  5
18B
100
AcDbEntity
100
AcDbLine
  8
etch
 62
256
370
-1
  6
ByLayer
 10
-2.9784933333333319
 20
16.2761293333333334
 30
0.0
 11
-2.6344066666666652
 21
16.7922599999999989
 31
0.0
  0
LINE
  5
18C
100
AcDbEntity
100
AcDbLine
  8
etch
 62
256
370
-1
  6
ByLayer
 10
-2.6344066666666652
 20
16.7922599999999989
 30
0.0
 11
-2.4623666666666653
 21
17.3083866666666637
 31
0.0
  0
LINE
  5
18D
100
AcDbEntity
100
AcDbLine
  8
etch
 62
256
370
-1
  6
ByLayer
 10
-2.4623666666666653
 20
17.3083866666666637
 30
0.0
 11
-2.2903199999999986
 21
17.9965599999999988
 31
0.0
  0
LINE
  5
18E
100
AcDbEntity
100
AcDbLine
  8
etch
 62
256
370
-1
  6
ByLayer
 10
-2.2903199999999986
 20
17.9965599999999988
 30
0.0
 11
-2.2903199999999986
 21
18.5126866666666636
 31
0.0
  0
LINE
  5
18F
100
AcDbEntity
100
AcDbLine
  8
etch
 62
256
370
-1
  6
ByLayer
 10
-2.2903199999999986
 20
18.5126866666666636
 30
0.0
 11
-2.4623666666666653
 21
19.0288199999999996
 31
0.0
  0
LINE
  5
190
100
AcDbEntity
100
AcDbLine
  8
etch
 62
256
370
-1
  6
ByLayer
 10
-2.4623666666666653
 20
19.0288199999999996
 30
0.0
 11
-2.6344066666666652
 21
19.2008599999999987
 31
0.0
  0
LINE
  5
191
100
AcDbEntity
100
AcDbLine
  8
etch
 62
256
370
-1
  6
ByLayer
 10
-2.6344066666666652
 20
19.2008599999999987
 30
0.0
 11
-2.9784933333333319
 21
19.3729066666666654
 31
0.0
  0
LINE
  5
192
100
AcDbEntity
100
AcDbLine
  8
etch
 62
256
370
-1
  6
ByLayer
 10
-2.9784933333333319
 20
19.3729066666666654
 30
0.0
 11
-3.3225799999999985
 21
19.3729066666666654
 31
0.0
  0
LINE
  5
193
100
AcDbEntity
100
AcDbLine
  8
etch
 62
256
370
-1
  6
ByLayer
 10
-3.3225799999999985
 20
19.3729066666666654
 30
0.0
 11
-3.6666666666666652
 21
19.2008599999999987
 31
0.0
  0
LINE
  5
194
100
AcDbEntity
100
AcDbLine
  8
etch
 62
256
370
-1
  6
ByLayer
 10
-3.6666666666666652
 20
19.2008599999999987
 30
0.0
 11
-4.0107533333333318
 21
18.8567733333333329
 31
0.0
  0
LINE
  5
195
100
AcDbEntity
100
AcDbLine
  8
etch
 62
256
370
-1
  6
ByLayer
 10
-4.0107533333333318
 20
18.8567733333333329
 30
0.0
 11
-4.3548373333333315
 21
18.3406466666666645
 31
0.0
  0
LINE
  5
196
100
AcDbEntity
100
AcDbLine
  8
etch
 62
256
370
-1
  6
ByLayer
 10
-4.3548373333333315
 20
18.3406466666666645
 30
0.0
 11
-4.5268806666666652
 21
17.8245133333333321
 31
0.0
  0
LINE
  5
197
100
AcDbEntity
100
AcDbLine
  8
etch
 62
256
370
-1
  6
ByLayer
 10
-4.5268806666666652
 20
17.8245133333333321
 30
0.0
 11
-4.6989233333333313
 21
17.1363466666666646
 31
0.0
  0
LINE
  5
198
100
AcDbEntity
100
AcDbLine
  8
etch
 62
256
370
-1
  6
ByLayer
 10
-4.6989233333333313
 20
17.1363466666666646
 30
0.0
 11
-4.6989233333333313
 21
16.6202133333333322
 31
0.0
  0
LINE
  5
199
100
AcDbEntity
100
AcDbLine
  8
etch
 62
256
370
-1
  6
ByLayer
 10
-4.6989233333333313
 20
16.6202133333333322
 30
0.0
 11
-4.5268806666666652
 21
16.1040859999999988
 31
0.0
  0
LINE
  5
19A
100
AcDbEntity
100
AcDbLine
  8
etch
 62
256
370
-1
  6
ByLayer
 10
-4.5268806666666652
 20
16.1040859999999988
 30
0.0
 11
-4.1827933333333318
 21
15.759999999999998
 31
0.0
  0
LINE
  5
19B
100
AcDbEntity
100
AcDbLine
  8
etch
 62
256
370
-1
  6
ByLayer
 10
-3.8387066666666652
 20
15.759999999999998
 30
0.0
 11
-3.4946199999999985
 21
15.9320433333333309
 31
0.0
  0
LINE
  5
19C
100
AcDbEntity
100
AcDbLine
  8
etch
 62
256
370
-1
  6
ByLayer
 10
-3.4946199999999985
 20
15.9320433333333309
 30
0.0
 11
-3.1505333333333319
 21
16.2761293333333334
 31
0.0
  0
LINE
  5
19D
100
AcDbEntity
100
AcDbLine
  8
etch
 62
256
370
-1
  6
ByLayer
 10
-3.1505333333333319
 20
16.2761293333333334
 30
0.0
 11
-2.8064533333333319
 21
16.7922599999999989
 31
0.0
  0
LINE
  5
19E
100
AcDbEntity
100
AcDbLine
  8
etch
 62
256
370
-1
  6
ByLayer
 10
-2.8064533333333319
 20
16.7922599999999989
 30
0.0
 11
-2.6344066666666652
 21
17.3083866666666637
 31
0.0
  0
LINE
  5
19F
100
AcDbEntity
100
AcDbLine
  8
etch
 62
256
370
-1
  6
ByLayer
 10
-2.6344066666666652
 20
17.3083866666666637
 30
0.0
 11
-2.4623666666666653
 21
17.9965599999999988
 31
0.0
  0
LINE
  5
1A0
100
AcDbEntity
100
AcDbLine
  8
etch
 62
256
370
-1
  6
ByLayer
 10
-2.4623666666666653
 20
17.9965599999999988
 30
0.0
 11
-2.4623666666666653
 21
18.5126866666666636
 31
0.0
  0
LINE
  5
1A1
100
AcDbEntity
100
AcDbLine
  8
etch
 62
256
370
-1
  6
ByLayer
 10
-2.4623666666666653
 20
18.5126866666666636
 30
0.0
 11
-2.6344066666666652
 21
19.0288199999999996
 31
0.0
  0
LINE
  5
1A2
100
AcDbEntity
100
AcDbLine
  8
etch
 62
256
370
-1
  6
ByLayer
 10
-2.6344066666666652
 20
19.0288199999999996
 30
0.0
 11
-2.9784933333333319
 21
19.3729066666666654
 31
0.0
  0
LINE
  5
1A3
100
AcDbEntity
100
AcDbLine
  8
etch
 62
256
370
-1
  6
ByLayer
 10
0.0537660000000016
 20
19.3729066666666654
 30
0.0
 11
0.2258093333333351
 21
15.7599999999999998
 31
0.0
  0
LINE
  5
1A4
100
AcDbEntity
100
AcDbLine
  8
etch
 62
256
370
-1
  6
ByLayer
 10
0.2258093333333355
 20
19.3729066666666654
 30
0.0
 11
0.3978533333333351
 21
16.1040860000000023
 31
0.0
  0
LINE
  5
1A5
100
AcDbEntity
100
AcDbLine
  8
etch
 62
256
370
-1
  6
ByLayer
 10
2.4623666666666684
 20
19.3729066666666654
 30
0.0
 11
0.2258093333333351
 21
15.7599999999999998
 31
0.0
  0
LINE
  5
1A6
100
AcDbEntity
100
AcDbLine
  8
etch
 62
256
370
-1
  6
ByLayer
 10
-0.290319999999998
 20
19.3729066666666654
 30
0.0
 11
0.741940000000002
 21
19.3729066666666654
 31
0.0
  0
LINE
  5
1A7
100
AcDbEntity
100
AcDbLine
  8
etch
 62
256
370
-1
  6
ByLayer
 10
1.7741933333333351
 20
19.3729066666666654
 30
0.0
 11
2.806453333333335
 21
19.3729066666666654
 31
0.0
  0
LINE
  5
1A8
100
AcDbEntity
100
AcDbLine
  8
etch
 62
256
370
-1
  6
ByLayer
 10
6.3548400000000012
 20
19.3729066666666654
 30
0.0
 11
5.3225826666666682
 21
15.7599999999999998
 31
0.0
  0
LINE
  5
1A9
100
AcDbEntity
100
AcDbLine
  8
etch
 62
256
370
-1
  6
ByLayer
 10
6.5268866666666678
 20
19.3729066666666654
 30
0.0
 11
5.4946266666666679
 21
15.7599999999999998
 31
0.0
  0
LINE
  5
1AA
100
AcDbEntity
100
AcDbLine
  8
etch
 62
256
370
-1
  6
ByLayer
 10
5.8387133333333345
 20
19.3729066666666654
 30
0.0
 11
7.3871000000000002
 21
19.3729066666666654
 31
0.0
  0
LINE
  5
1AB
100
AcDbEntity
100
AcDbLine
  8
etch
 62
256
370
-1
  6
ByLayer
 10
7.3871000000000002
 20
19.3729066666666654
 30
0.0
 11
7.9032266666666668
 21
19.2008599999999987
 31
0.0
  0
LINE
  5
1AC
100
AcDbEntity
100
AcDbLine
  8
etch
 62
256
370
-1
  6
ByLayer
 10
7.9032266666666668
 20
19.2008599999999987
 30
0.0
 11
8.0752733333333353
 21
19.0288199999999996
 31
0.0
  0
LINE
  5
1AD
100
AcDbEntity
100
AcDbLine
  8
etch
 62
256
370
-1
  6
ByLayer
 10
8.0752733333333353
 20
19.0288199999999996
 30
0.0
 11
8.2473133333333344
 21
18.5126866666666672
 31
0.0
  0
LINE
  5
1AE
100
AcDbEntity
100
AcDbLine
  8
etch
 62
256
370
-1
  6
ByLayer
 10
8.2473133333333344
 20
18.5126866666666672
 30
0.0
 11
8.2473133333333344
 21
17.8245133333333357
 31
0.0
  0
LINE
  5
1AF
100
AcDbEntity
100
AcDbLine
  8
etch
 62
256
370
-1
  6
ByLayer
 10
8.2473133333333344
 20
17.8245133333333357
 30
0.0
 11
8.0752733333333353
 21
17.1363466666666682
 31
0.0
  0
LINE
  5
1B0
100
AcDbEntity
100
AcDbLine
  8
etch
 62
256
370
-1
  6
ByLayer
 10
8.0752733333333353
 20
17.1363466666666682
 30
0.0
 11
7.7311866666666678
 21
16.4481733333333331
 31
0.0
  0
LINE
  5
1B1
100
AcDbEntity
100
AcDbLine
  8
etch
 62
256
370
-1
  6
ByLayer
 10
7.7311866666666678
 20
16.4481733333333331
 30
0.0
 11
7.3871000000000002
 21
16.1040860000000023
 31
0.0
  0
LINE
  5
1B2
100
AcDbEntity
100
AcDbLine
  8
etch
 62
256
370
-1
  6
ByLayer
 10
7.3871000000000002
 20
16.1040860000000023
 30
0.0
 11
7.0430133333333345
 21
15.9320433333333327
 31
0.0
  0
LINE
  5
1B3
100
AcDbEntity
100
AcDbLine
  8
etch
 62
256
370
-1
  6
ByLayer
 10
7.0430133333333345
 20
15.9320433333333327
 30
0.0
 11
6.3548400000000012
 21
15.7599999999999998
 31
0.0
  0
LINE
  5
1B4
100
AcDbEntity
100
AcDbLine
  8
etch
 62
256
370
-1
  6
ByLayer
 10
6.3548400000000012
 20
15.7599999999999998
 30
0.0
 11
4.8064533333333346
 21
15.7599999999999998
 31
0.0
  0
LINE
  5
1B5
100
AcDbEntity
100
AcDbLine
  8
etch
 62
256
370
-1
  6
ByLayer
 10
7.3871000000000002
 20
19.3729066666666654
 30
0.0
 11
7.7311866666666678
 21
19.2008599999999987
 31
0.0
  0
LINE
  5
1B6
100
AcDbEntity
100
AcDbLine
  8
etch
 62
256
370
-1
  6
ByLayer
 10
7.7311866666666678
 20
19.2008599999999987
 30
0.0
 11
7.9032266666666677
 21
19.0288199999999996
 31
0.0
  0
LINE
  5
1B7
100
AcDbEntity
100
AcDbLine
  8
etch
 62
256
370
-1
  6
ByLayer
 10
7.9032266666666677
 20
19.0288199999999996
 30
0.0
 11
8.0752733333333353
 21
18.5126866666666672
 31
0.0
  0
LINE
  5
1B8
100
AcDbEntity
100
AcDbLine
  8
etch
 62
256
370
-1
  6
ByLayer
 10
8.0752733333333353
 20
18.5126866666666672
 30
0.0
 11
8.0752733333333353
 21
17.8245133333333357
 31
0.0
  0
LINE
  5
1B9
100
AcDbEntity
100
AcDbLine
  8
etch
 62
256
370
-1
  6
ByLayer
 10
8.0752733333333353
 20
17.8245133333333357
 30
0.0
 11
7.9032266666666677
 21
17.1363466666666682
 31
0.0
  0
LINE
  5
1BA
100
AcDbEntity
100
AcDbLine
  8
etch
 62
256
370
-1
  6
ByLayer
 10
7.9032266666666677
 20
17.1363466666666682
 30
0.0
 11
7.5591400000000011
 21
16.4481733333333331
 31
0.0
  0
LINE
  5
1BB
100
AcDbEntity
100
AcDbLine
  8
etch
 62
256
370
-1
  6
ByLayer
 10
7.5591400000000011
 20
16.4481733333333331
 30
0.0
 11
7.2150533333333335
 21
16.1040860000000023
 31
0.0
  0
LINE
  5
1BC
100
AcDbEntity
100
AcDbLine
  8
etch
 62
256
370
-1
  6
ByLayer
 10
7.2150533333333335
 20
16.1040860000000023
 30
0.0
 11
6.8709666666666678
 21
15.9320433333333327
 31
0.0
  0
LINE
  5
1BD
100
AcDbEntity
100
AcDbLine
  8
etch
 62
256
370
-1
  6
ByLayer
 10
6.8709666666666678
 20
15.9320433333333327
 30
0.0
 11
6.3548400000000012
 21
15.7599999999999998
 31
0.0
  0
LINE
  5
1BE
100
AcDbEntity
100
AcDbLine
  8
etch
 62
256
370
-1
  6
ByLayer
 10
12.8279599999999991
 20
19.0288200000000032
 30
0.0
 11
13.0
 21
19.0288200000000032
 31
0.0
  0
LINE
  5
1BF
100
AcDbEntity
100
AcDbLine
  8
etch
 62
256
370
-1
  6
ByLayer
 10
13.0
 20
19.0288200000000032
 30
0.0
 11
13.1720466666666667
 21
19.3729066666666689
 31
0.0
  0
LINE
  5
1C0
100
AcDbEntity
100
AcDbLine
  8
etch
 62
256
370
-1
  6
ByLayer
 10
13.1720466666666667
 20
19.3729066666666689
 30
0.0
 11
13.0
 21
18.3406466666666681
 31
0.0
  0
LINE
  5
1C1
100
AcDbEntity
100
AcDbLine
  8
etch
 62
256
370
-1
  6
ByLayer
 10
13.0
 20
18.3406466666666681
 30
0.0
 11
13.0
 21
18.6847333333333339
 31
0.0
  0
LINE
  5
1C2
100
AcDbEntity
100
AcDbLine
  8
etch
 62
256
370
-1
  6
ByLayer
 10
13.0
 20
18.6847333333333339
 30
0.0
 11
12.8279599999999991
 21
19.0288200000000032
 31
0.0
  0
LINE
  5
1C3
100
AcDbEntity
100
AcDbLine
  8
etch
 62
256
370
-1
  6
ByLayer
 10
12.8279599999999991
 20
19.0288200000000032
 30
0.0
 11
12.6559133333333325
 21
19.2008600000000023
 31
0.0
  0
LINE
  5
1C4
100
AcDbEntity
100
AcDbLine
  8
etch
 62
256
370
-1
  6
ByLayer
 10
12.6559133333333325
 20
19.2008600000000023
 30
0.0
 11
12.3118266666666649
 21
19.3729066666666689
 31
0.0
  0
LINE
  5
1C5
100
AcDbEntity
100
AcDbLine
  8
etch
 62
256
370
-1
  6
ByLayer
 10
12.3118266666666649
 20
19.3729066666666689
 30
0.0
 11
11.7957000000000001
 21
19.3729066666666689
 31
0.0
  0
LINE
  5
1C6
100
AcDbEntity
100
AcDbLine
  8
etch
 62
256
370
-1
  6
ByLayer
 10
11.7957000000000001
 20
19.3729066666666689
 30
0.0
 11
11.2795733333333317
 21
19.2008600000000023
 31
0.0
  0
LINE
  5
1C7
100
AcDbEntity
100
AcDbLine
  8
etch
 62
256
370
-1
  6
ByLayer
 10
11.2795733333333317
 20
19.2008600000000023
 30
0.0
 11
10.9354866666666659
 21
18.8567733333333365
 31
0.0
  0
LINE
  5
1C8
100
AcDbEntity
100
AcDbLine
  8
etch
 62
256
370
-1
  6
ByLayer
 10
10.9354866666666659
 20
18.8567733333333365
 30
0.0
 11
10.5913993333333316
 21
18.3406466666666681
 31
0.0
  0
LINE
  5
1C9
100
AcDbEntity
100
AcDbLine
  8
etch
 62
256
370
-1
  6
ByLayer
 10
10.5913993333333316
 20
18.3406466666666681
 30
0.0
 11
10.4193566666666655
 21
17.8245133333333357
 31
0.0
  0
LINE
  5
1CA
100
AcDbEntity
100
AcDbLine
  8
etch
 62
256
370
-1
  6
ByLayer
 10
10.4193566666666655
 20
17.8245133333333357
 30
0.0
 11
10.2473133333333326
 21
17.1363466666666682
 31
0.0
  0
LINE
  5
1CB
100
AcDbEntity
100
AcDbLine
  8
etch
 62
256
370
-1
  6
ByLayer
 10
10.2473133333333326
 20
17.1363466666666682
 30
0.0
 11
10.2473133333333326
 21
16.6202133333333357
 31
0.0
  0
LINE
  5
1CC
100
AcDbEntity
100
AcDbLine
  8
etch
 62
256
370
-1
  6
ByLayer
 10
10.2473133333333326
 20
16.6202133333333357
 30
0.0
 11
10.4193566666666655
 21
16.1040860000000023
 31
0.0
  0
LINE
  5
1CD
100
AcDbEntity
100
AcDbLine
  8
etch
 62
256
370
-1
  6
ByLayer
 10
10.4193566666666655
 20
16.1040860000000023
 30
0.0
 11
10.5913993333333316
 21
15.9320433333333344
 31
0.0
  0
LINE
  5
1CE
100
AcDbEntity
100
AcDbLine
  8
etch
 62
256
370
-1
  6
ByLayer
 10
10.5913993333333316
 20
15.9320433333333344
 30
0.0
 11
11.107526666666665
 21
15.7600000000000016
 31
0.0
  0
LINE
  5
1CF
100
AcDbEntity
100
AcDbLine
  8
etch
 62
256
370
-1
  6
ByLayer
 10
11.107526666666665
 20
15.7600000000000016
 30
0.0
 11
11.6236599999999992
 21
15.7600000000000016
 31
0.0
  0
LINE
  5
1D0
100
AcDbEntity
100
AcDbLine
  8
etch
 62
256
370
-1
  6
ByLayer
 10
11.6236599999999992
 20
15.7600000000000016
 30
0.0
 11
11.9677466666666668
 21
15.9320433333333344
 31
0.0
  0
LINE
  5
1D1
100
AcDbEntity
100
AcDbLine
  8
etch
 62
256
370
-1
  6
ByLayer
 10
11.9677466666666668
 20
15.9320433333333344
 30
0.0
 11
12.3118266666666649
 21
16.276129333333337
 31
0.0
  0
LINE
  5
1D2
100
AcDbEntity
100
AcDbLine
  8
etch
 62
256
370
-1
  6
ByLayer
 10
12.3118266666666649
 20
16.276129333333337
 30
0.0
 11
12.4838733333333316
 21
16.6202133333333357
 31
0.0
  0
LINE
  5
1D3
100
AcDbEntity
100
AcDbLine
  8
etch
 62
256
370
-1
  6
ByLayer
 10
11.7957000000000001
 20
19.3729066666666689
 30
0.0
 11
11.4516133333333325
 21
19.2008600000000023
 31
0.0
  0
LINE
  5
1D4
100
AcDbEntity
100
AcDbLine
  8
etch
 62
256
370
-1
  6
ByLayer
 10
11.4516133333333325
 20
19.2008600000000023
 30
0.0
 11
11.107526666666665
 21
18.8567733333333365
 31
0.0
  0
LINE
  5
1D5
100
AcDbEntity
100
AcDbLine
  8
etch
 62
256
370
-1
  6
ByLayer
 10
11.107526666666665
 20
18.8567733333333365
 30
0.0
 11
10.7634426666666663
 21
18.3406466666666681
 31
0.0
  0
LINE
  5
1D6
100
AcDbEntity
100
AcDbLine
  8
etch
 62
256
370
-1
  6
ByLayer
 10
10.7634426666666663
 20
18.3406466666666681
 30
0.0
 11
10.5913993333333316
 21
17.8245133333333357
 31
0.0
  0
LINE
  5
1D7
100
AcDbEntity
100
AcDbLine
  8
etch
 62
256
370
-1
  6
ByLayer
 10
10.5913993333333316
 20
17.8245133333333357
 30
0.0
 11
10.4193566666666655
 21
17.1363466666666682
 31
0.0
  0
LINE
  5
1D8
100
AcDbEntity
100
AcDbLine
  8
etch
 62
256
370
-1
  6
ByLayer
 10
10.4193566666666655
 20
17.1363466666666682
 30
0.0
 11
10.4193566666666655
 21
16.6202133333333357
 31
0.0
  0
LINE
  5
1D9
100
AcDbEntity
100
AcDbLine
  8
etch
 62
256
370
-1
  6
ByLayer
 10
10.4193566666666655
 20
16.6202133333333357
 30
0.0
 11
10.5913993333333316
 21
16.1040860000000023
 31
0.0
  0
LINE
  5
1DA
100
AcDbEntity
100
AcDbLine
  8
etch
 62
256
370
-1
  6
ByLayer
 10
10.5913993333333316
 20
16.1040860000000023
 30
0.0
 11
10.7634426666666663
 21
15.9320433333333344
 31
0.0
  0
LINE
  5
1DB
100
AcDbEntity
100
AcDbLine
  8
etch
 62
256
370
-1
  6
ByLayer
 10
10.7634426666666663
 20
15.9320433333333344
 30
0.0
 11
11.107526666666665
 21
15.7600000000000016
 31
0.0
  0
LINE
  5
1DC
100
AcDbEntity
100
AcDbLine
  8
etch
 62
256
370
-1
  6
ByLayer
 10
-10.9354866666666659
 20
13.2688200000000016
 30
0.0
 11
-10.7634466666666668
 21
13.2688200000000016
 31
0.0
  0
LINE
  5
1DD
100
AcDbEntity
100
AcDbLine
  8
etch
 62
256
370
-1
  6
ByLayer
 10
-10.7634466666666668
 20
13.2688200000000016
 30
0.0
 11
-10.5914000000000001
 21
13.6129066666666674
 31
0.0
  0
LINE
  5
1DE
100
AcDbEntity
100
AcDbLine
  8
etch
 62
256
370
-1
  6
ByLayer
 10
-10.5914000000000001
 20
13.6129066666666674
 30
0.0
 11
-10.7634466666666668
 21
12.5806466666666683
 31
0.0
  0
LINE
  5
1DF
100
AcDbEntity
100
AcDbLine
  8
etch
 62
256
370
-1
  6
ByLayer
 10
-10.7634466666666668
 20
12.5806466666666683
 30
0.0
 11
-10.7634466666666668
 21
12.9247333333333358
 31
0.0
  0
LINE
  5
1E0
100
AcDbEntity
100
AcDbLine
  8
etch
 62
256
370
-1
  6
ByLayer
 10
-10.7634466666666668
 20
12.9247333333333358
 30
0.0
 11
-10.9354866666666659
 21
13.2688200000000016
 31
0.0
  0
LINE
  5
1E1
100
AcDbEntity
100
AcDbLine
  8
etch
 62
256
370
-1
  6
ByLayer
 10
-10.9354866666666659
 20
13.2688200000000016
 30
0.0
 11
-11.1075333333333326
 21
13.4408600000000007
 31
0.0
  0
LINE
  5
1E2
100
AcDbEntity
100
AcDbLine
  8
etch
 62
256
370
-1
  6
ByLayer
 10
-11.1075333333333326
 20
13.4408600000000007
 30
0.0
 11
-11.623660000000001
 21
13.6129066666666674
 31
0.0
  0
LINE
  5
1E3
100
AcDbEntity
100
AcDbLine
  8
etch
 62
256
370
-1
  6
ByLayer
 10
-11.623660000000001
 20
13.6129066666666674
 30
0.0
 11
-12.3118333333333325
 21
13.6129066666666674
 31
0.0
  0
LINE
  5
1E4
100
AcDbEntity
100
AcDbLine
  8
etch
 62
256
370
-1
  6
ByLayer
 10
-12.3118333333333325
 20
13.6129066666666674
 30
0.0
 11
-12.8279600000000009
 21
13.4408600000000007
 31
0.0
  0
LINE
  5
1E5
100
AcDbEntity
100
AcDbLine
  8
etch
 62
256
370
-1
  6
ByLayer
 10
-12.8279600000000009
 20
13.4408600000000007
 30
0.0
 11
-13.1720466666666667
 21
13.0967733333333349
 31
0.0
  0
LINE
  5
1E6
100
AcDbEntity
100
AcDbLine
  8
etch
 62
256
370
-1
  6
ByLayer
 10
-13.1720466666666667
 20
13.0967733333333349
 30
0.0
 11
-13.1720466666666667
 21
12.7526866666666692
 31
0.0
  0
LINE
  5
1E7
100
AcDbEntity
100
AcDbLine
  8
etch
 62
256
370
-1
  6
ByLayer
 10
-13.1720466666666667
 20
12.7526866666666692
 30
0.0
 11
-13.0000066666666676
 21
12.4086000000000016
 31
0.0
  0
LINE
  5
1E8
100
AcDbEntity
100
AcDbLine
  8
etch
 62
256
370
-1
  6
ByLayer
 10
-13.0000066666666676
 20
12.4086000000000016
 30
0.0
 11
-12.8279600000000009
 21
12.2365600000000008
 31
0.0
  0
LINE
  5
1E9
100
AcDbEntity
100
AcDbLine
  8
etch
 62
256
370
-1
  6
ByLayer
 10
-12.8279600000000009
 20
12.2365600000000008
 30
0.0
 11
-11.623660000000001
 21
11.5483866666666692
 31
0.0
  0
LINE
  5
1EA
100
AcDbEntity
100
AcDbLine
  8
etch
 62
256
370
-1
  6
ByLayer
 10
-11.623660000000001
 20
11.5483866666666692
 30
0.0
 11
-11.2795733333333335
 21
11.2043000000000017
 31
0.0
  0
LINE
  5
1EB
100
AcDbEntity
100
AcDbLine
  8
etch
 62
256
370
-1
  6
ByLayer
 10
-13.1720466666666667
 20
12.7526866666666692
 30
0.0
 11
-12.8279600000000009
 21
12.4086000000000016
 31
0.0
  0
LINE
  5
1EC
100
AcDbEntity
100
AcDbLine
  8
etch
 62
256
370
-1
  6
ByLayer
 10
-12.8279600000000009
 20
12.4086000000000016
 30
0.0
 11
-11.623660000000001
 21
11.7204333333333359
 31
0.0
  0
LINE
  5
1ED
100
AcDbEntity
100
AcDbLine
  8
etch
 62
256
370
-1
  6
ByLayer
 10
-11.623660000000001
 20
11.7204333333333359
 30
0.0
 11
-11.4516200000000001
 21
11.5483866666666692
 31
0.0
  0
LINE
  5
1EE
100
AcDbEntity
100
AcDbLine
  8
etch
 62
256
370
-1
  6
ByLayer
 10
-11.4516200000000001
 20
11.5483866666666692
 30
0.0
 11
-11.2795733333333335
 21
11.2043000000000017
 31
0.0
  0
LINE
  5
1EF
100
AcDbEntity
100
AcDbLine
  8
etch
 62
256
370
-1
  6
ByLayer
 10
-11.2795733333333335
 20
11.2043000000000017
 30
0.0
 11
-11.2795733333333335
 21
10.6881733333333351
 31
0.0
  0
LINE
  5
1F0
100
AcDbEntity
100
AcDbLine
  8
etch
 62
256
370
-1
  6
ByLayer
 10
-11.2795733333333335
 20
10.6881733333333351
 30
0.0
 11
-11.4516200000000001
 21
10.3440860000000008
 31
0.0
  0
LINE
  5
1F1
100
AcDbEntity
100
AcDbLine
  8
etch
 62
256
370
-1
  6
ByLayer
 10
-11.4516200000000001
 20
10.3440860000000008
 30
0.0
 11
-11.623660000000001
 21
10.1720433333333347
 31
0.0
  0
LINE
  5
1F2
100
AcDbEntity
100
AcDbLine
  8
etch
 62
256
370
-1
  6
ByLayer
 10
-11.623660000000001
 20
10.1720433333333347
 30
0.0
 11
-12.1397866666666658
 21
10.0000000000000018
 31
0.0
  0
LINE
  5
1F3
100
AcDbEntity
100
AcDbLine
  8
etch
 62
256
370
-1
  6
ByLayer
 10
-12.1397866666666658
 20
10.0000000000000018
 30
0.0
 11
-12.8279600000000009
 21
10.0000000000000018
 31
0.0
  0
LINE
  5
1F4
100
AcDbEntity
100
AcDbLine
  8
etch
 62
256
370
-1
  6
ByLayer
 10
-12.8279600000000009
 20
10.0000000000000018
 30
0.0
 11
-13.3440906666666663
 21
10.1720433333333347
 31
0.0
  0
LINE
  5
1F5
100
AcDbEntity
100
AcDbLine
  8
etch
 62
256
370
-1
  6
ByLayer
 10
-13.3440906666666663
 20
10.1720433333333347
 30
0.0
 11
-13.516134000000001
 21
10.3440860000000008
 31
0.0
  0
LINE
  5
1F6
100
AcDbEntity
100
AcDbLine
  8
etch
 62
256
370
-1
  6
ByLayer
 10
-13.516134000000001
 20
10.3440860000000008
 30
0.0
 11
-13.6881766666666671
 21
10.6881733333333351
 31
0.0
  0
LINE
  5
1F7
100
AcDbEntity
100
AcDbLine
  8
etch
 62
256
370
-1
  6
ByLayer
 10
-13.6881766666666671
 20
10.6881733333333351
 30
0.0
 11
-13.6881766666666671
 21
11.0322600000000008
 31
0.0
  0
LINE
  5
1F8
100
AcDbEntity
100
AcDbLine
  8
etch
 62
256
370
-1
  6
ByLayer
 10
-13.6881766666666671
 20
11.0322600000000008
 30
0.0
 11
-13.86022
 21
10.0000000000000018
 31
0.0
  0
LINE
  5
1F9
100
AcDbEntity
100
AcDbLine
  8
etch
 62
256
370
-1
  6
ByLayer
 10
-13.86022
 20
10.0000000000000018
 30
0.0
 11
-13.6881766666666671
 21
10.3440860000000008
 31
0.0
  0
LINE
  5
1FA
100
AcDbEntity
100
AcDbLine
  8
etch
 62
256
370
-1
  6
ByLayer
 10
-13.6881766666666671
 20
10.3440860000000008
 30
0.0
 11
-13.516134000000001
 21
10.3440860000000008
 31
0.0
  0
LINE
  5
1FB
100
AcDbEntity
100
AcDbLine
  8
etch
 62
256
370
-1
  6
ByLayer
 10
-8.5914000000000001
 20
11.7204333333333359
 30
0.0
 11
-8.4193566666666673
 21
12.0645133333333341
 31
0.0
  0
LINE
  5
1FC
100
AcDbEntity
100
AcDbLine
  8
etch
 62
256
370
-1
  6
ByLayer
 10
-8.4193566666666673
 20
12.0645133333333341
 30
0.0
 11
-8.0752706666666665
 21
12.4086000000000016
 31
0.0
  0
LINE
  5
1FD
100
AcDbEntity
100
AcDbLine
  8
etch
 62
256
370
-1
  6
ByLayer
 10
-8.0752706666666665
 20
12.4086000000000016
 30
0.0
 11
-7.5591400000000011
 21
12.4086000000000016
 31
0.0
  0
LINE
  5
1FE
100
AcDbEntity
100
AcDbLine
  8
etch
 62
256
370
-1
  6
ByLayer
 10
-7.5591400000000011
 20
12.4086000000000016
 30
0.0
 11
-7.3871000000000002
 21
12.2365600000000008
 31
0.0
  0
LINE
  5
1FF
100
AcDbEntity
100
AcDbLine
  8
etch
 62
256
370
-1
  6
ByLayer
 10
-7.3871000000000002
 20
12.2365600000000008
 30
0.0
 11
-7.3871000000000002
 21
11.7204333333333359
 31
0.0
  0
LINE
  5
200
100
AcDbEntity
100
AcDbLine
  8
etch
 62
256
370
-1
  6
ByLayer
 10
-7.3871000000000002
 20
11.7204333333333359
 30
0.0
 11
-7.7311866666666669
 21
10.6881733333333351
 31
0.0
  0
LINE
  5
201
100
AcDbEntity
100
AcDbLine
  8
etch
 62
256
370
-1
  6
ByLayer
 10
-7.7311866666666669
 20
10.6881733333333351
 30
0.0
 11
-7.7311866666666669
 21
10.3440860000000008
 31
0.0
  0
LINE
  5
202
100
AcDbEntity
100
AcDbLine
  8
etch
 62
256
370
-1
  6
ByLayer
 10
-7.7311866666666669
 20
10.3440860000000008
 30
0.0
 11
-7.3871000000000002
 21
10.0000000000000018
 31
0.0
  0
LINE
  5
203
100
AcDbEntity
100
AcDbLine
  8
etch
 62
256
370
-1
  6
ByLayer
 10
-7.7311866666666669
 20
12.4086000000000016
 30
0.0
 11
-7.5591400000000011
 21
12.2365600000000008
 31
0.0
  0
LINE
  5
204
100
AcDbEntity
100
AcDbLine
  8
etch
 62
256
370
-1
  6
ByLayer
 10
-7.5591400000000011
 20
12.2365600000000008
 30
0.0
 11
-7.5591400000000011
 21
11.7204333333333359
 31
0.0
  0
LINE
  5
205
100
AcDbEntity
100
AcDbLine
  8
etch
 62
256
370
-1
  6
ByLayer
 10
-7.5591400000000011
 20
11.7204333333333359
 30
0.0
 11
-7.9032266666666668
 21
10.6881733333333351
 31
0.0
  0
LINE
  5
206
100
AcDbEntity
100
AcDbLine
  8
etch
 62
256
370
-1
  6
ByLayer
 10
-7.9032266666666668
 20
10.6881733333333351
 30
0.0
 11
-7.9032266666666668
 21
10.3440860000000008
 31
0.0
  0
LINE
  5
207
100
AcDbEntity
100
AcDbLine
  8
etch
 62
256
370
-1
  6
ByLayer
 10
-7.9032266666666668
 20
10.3440860000000008
 30
0.0
 11
-7.7311866666666669
 21
10.1720433333333347
 31
0.0
  0
LINE
  5
208
100
AcDbEntity
100
AcDbLine
  8
etch
 62
256
370
-1
  6
ByLayer
 10
-7.7311866666666669
 20
10.1720433333333347
 30
0.0
 11
-7.3871000000000002
 21
10.0000000000000018
 31
0.0
  0
LINE
  5
209
100
AcDbEntity
100
AcDbLine
  8
etch
 62
256
370
-1
  6
ByLayer
 10
-7.3871000000000002
 20
10.0000000000000018
 30
0.0
 11
-7.0430133333333336
 21
10.0000000000000018
 31
0.0
  0
LINE
  5
20A
100
AcDbEntity
100
AcDbLine
  8
etch
 62
256
370
-1
  6
ByLayer
 10
-7.0430133333333336
 20
10.0000000000000018
 30
0.0
 11
-6.6989266666666669
 21
10.1720433333333329
 31
0.0
  0
LINE
  5
20B
100
AcDbEntity
100
AcDbLine
  8
etch
 62
256
370
-1
  6
ByLayer
 10
-6.6989266666666669
 20
10.1720433333333329
 30
0.0
 11
-6.3548400000000012
 21
10.5161293333333354
 31
0.0
  0
LINE
  5
20C
100
AcDbEntity
100
AcDbLine
  8
etch
 62
256
370
-1
  6
ByLayer
 10
-6.3548400000000012
 20
10.5161293333333354
 30
0.0
 11
-6.0107533333333336
 21
11.2043000000000017
 31
0.0
  0
LINE
  5
20D
100
AcDbEntity
100
AcDbLine
  8
etch
 62
256
370
-1
  6
ByLayer
 10
-5.6666666666666679
 20
12.4086000000000016
 30
0.0
 11
-6.0107533333333336
 21
11.2043000000000017
 31
0.0
  0
LINE
  5
20E
100
AcDbEntity
100
AcDbLine
  8
etch
 62
256
370
-1
  6
ByLayer
 10
-6.0107533333333336
 20
11.2043000000000017
 30
0.0
 11
-6.1828000000000003
 21
10.5161293333333354
 31
0.0
  0
LINE
  5
20F
100
AcDbEntity
100
AcDbLine
  8
etch
 62
256
370
-1
  6
ByLayer
 10
-6.1828000000000003
 20
10.5161293333333354
 30
0.0
 11
-6.1828000000000003
 21
10.1720433333333329
 31
0.0
  0
LINE
  5
210
100
AcDbEntity
100
AcDbLine
  8
etch
 62
256
370
-1
  6
ByLayer
 10
-6.1828000000000003
 20
10.1720433333333329
 30
0.0
 11
-6.0107533333333336
 21
10.0000000000000018
 31
0.0
  0
LINE
  5
211
100
AcDbEntity
100
AcDbLine
  8
etch
 62
256
370
-1
  6
ByLayer
 10
-6.0107533333333336
 20
10.0000000000000018
 30
0.0
 11
-5.494626666666667
 21
10.0000000000000018
 31
0.0
  0
LINE
  5
212
100
AcDbEntity
100
AcDbLine
  8
etch
 62
256
370
-1
  6
ByLayer
 10
-5.494626666666667
 20
10.0000000000000018
 30
0.0
 11
-5.1505400000000003
 21
10.3440860000000008
 31
0.0
  0
LINE
  5
213
100
AcDbEntity
100
AcDbLine
  8
etch
 62
256
370
-1
  6
ByLayer
 10
-5.1505400000000003
 20
10.3440860000000008
 30
0.0
 11
-4.9784933333333337
 21
10.6881733333333369
 31
0.0
  0
LINE
  5
214
100
AcDbEntity
100
AcDbLine
  8
etch
 62
256
370
-1
  6
ByLayer
 10
-5.494626666666667
 20
12.4086000000000016
 30
0.0
 11
-5.8387133333333336
 21
11.2043000000000017
 31
0.0
  0
LINE
  5
215
100
AcDbEntity
100
AcDbLine
  8
etch
 62
256
370
-1
  6
ByLayer
 10
-5.8387133333333336
 20
11.2043000000000017
 30
0.0
 11
-6.0107533333333336
 21
10.5161293333333354
 31
0.0
  0
LINE
  5
216
100
AcDbEntity
100
AcDbLine
  8
etch
 62
256
370
-1
  6
ByLayer
 10
-6.0107533333333336
 20
10.5161293333333354
 30
0.0
 11
-6.0107533333333336
 21
10.1720433333333364
 31
0.0
  0
LINE
  5
217
100
AcDbEntity
100
AcDbLine
  8
etch
 62
256
370
-1
  6
ByLayer
 10
-6.0107533333333336
 20
10.1720433333333364
 30
0.0
 11
-5.8387133333333336
 21
10.0000000000000018
 31
0.0
  0
LINE
  5
218
100
AcDbEntity
100
AcDbLine
  8
etch
 62
256
370
-1
  6
ByLayer
 10
-2.6344073333333329
 20
11.7204333333333341
 30
0.0
 11
-2.4623639999999996
 21
12.0645133333333323
 31
0.0
  0
LINE
  5
219
100
AcDbEntity
100
AcDbLine
  8
etch
 62
256
370
-1
  6
ByLayer
 10
-2.4623639999999996
 20
12.0645133333333323
 30
0.0
 11
-2.1182799999999995
 21
12.4085999999999999
 31
0.0
  0
LINE
  5
21A
100
AcDbEntity
100
AcDbLine
  8
etch
 62
256
370
-1
  6
ByLayer
 10
-2.1182799999999995
 20
12.4085999999999999
 30
0.0
 11
-1.6021466666666662
 21
12.4085999999999999
 31
0.0
  0
LINE
  5
21B
100
AcDbEntity
100
AcDbLine
  8
etch
 62
256
370
-1
  6
ByLayer
 10
-1.6021466666666662
 20
12.4085999999999999
 30
0.0
 11
-1.4301066666666662
 21
12.236559999999999
 31
0.0
  0
LINE
  5
21C
100
AcDbEntity
100
AcDbLine
  8
etch
 62
256
370
-1
  6
ByLayer
 10
-1.4301066666666662
 20
12.236559999999999
 30
0.0
 11
-1.4301066666666662
 21
11.8924733333333332
 31
0.0
  0
LINE
  5
21D
100
AcDbEntity
100
AcDbLine
  8
etch
 62
256
370
-1
  6
ByLayer
 10
-1.4301066666666662
 20
11.8924733333333332
 30
0.0
 11
-1.6021466666666662
 21
11.2042999999999999
 31
0.0
  0
LINE
  5
21E
100
AcDbEntity
100
AcDbLine
  8
etch
 62
256
370
-1
  6
ByLayer
 10
-1.6021466666666662
 20
11.2042999999999999
 30
0.0
 11
-2.2903199999999999
 21
8.7957000000000001
 31
0.0
  0
LINE
  5
21F
100
AcDbEntity
100
AcDbLine
  8
etch
 62
256
370
-1
  6
ByLayer
 10
-1.7741933333333326
 20
12.4085999999999999
 30
0.0
 11
-1.6021466666666659
 21
12.236559999999999
 31
0.0
  0
LINE
  5
220
100
AcDbEntity
100
AcDbLine
  8
etch
 62
256
370
-1
  6
ByLayer
 10
-1.6021466666666659
 20
12.236559999999999
 30
0.0
 11
-1.6021466666666662
 21
11.8924733333333332
 31
0.0
  0
LINE
  5
221
100
AcDbEntity
100
AcDbLine
  8
etch
 62
256
370
-1
  6
ByLayer
 10
-1.6021466666666662
 20
11.8924733333333332
 30
0.0
 11
-1.7741933333333328
 21
11.2042999999999999
 31
0.0
  0
LINE
  5
222
100
AcDbEntity
100
AcDbLine
  8
etch
 62
256
370
-1
  6
ByLayer
 10
-1.7741933333333328
 20
11.2042999999999999
 30
0.0
 11
-2.4623640000000004
 21
8.7957000000000001
 31
0.0
  0
LINE
  5
223
100
AcDbEntity
100
AcDbLine
  8
etch
 62
256
370
-1
  6
ByLayer
 10
-1.6021466666666662
 20
11.2042999999999999
 30
0.0
 11
-1.4301066666666662
 21
11.7204333333333341
 31
0.0
  0
LINE
  5
224
100
AcDbEntity
100
AcDbLine
  8
etch
 62
256
370
-1
  6
ByLayer
 10
-1.4301066666666662
 20
11.7204333333333341
 30
0.0
 11
-1.0860199999999995
 21
12.236559999999999
 31
0.0
  0
LINE
  5
225
100
AcDbEntity
100
AcDbLine
  8
etch
 62
256
370
-1
  6
ByLayer
 10
-1.0860199999999995
 20
12.236559999999999
 30
0.0
 11
-0.7419333333333329
 21
12.4085999999999999
 31
0.0
  0
LINE
  5
226
100
AcDbEntity
100
AcDbLine
  8
etch
 62
256
370
-1
  6
ByLayer
 10
-0.7419333333333329
 20
12.4085999999999999
 30
0.0
 11
-0.3978466666666662
 21
12.4085999999999999
 31
0.0
  0
LINE
  5
227
100
AcDbEntity
100
AcDbLine
  8
etch
 62
256
370
-1
  6
ByLayer
 10
-0.3978466666666662
 20
12.4085999999999999
 30
0.0
 11
-0.0537599999999996
 21
12.236559999999999
 31
0.0
  0
LINE
  5
228
100
AcDbEntity
100
AcDbLine
  8
etch
 62
256
370
-1
  6
ByLayer
 10
-0.0537599999999996
 20
12.236559999999999
 30
0.0
 11
0.1182800000000004
 21
12.0645133333333323
 31
0.0
  0
LINE
  5
229
100
AcDbEntity
100
AcDbLine
  8
etch
 62
256
370
-1
  6
ByLayer
 10
0.1182800000000004
 20
12.0645133333333323
 30
0.0
 11
0.2903266666666671
 21
11.7204333333333341
 31
0.0
  0
LINE
  5
22A
100
AcDbEntity
100
AcDbLine
  8
etch
 62
256
370
-1
  6
ByLayer
 10
0.2903266666666671
 20
11.7204333333333341
 30
0.0
 11
0.2903266666666671
 21
11.2042999999999999
 31
0.0
  0
LINE
  5
22B
100
AcDbEntity
100
AcDbLine
  8
etch
 62
256
370
-1
  6
ByLayer
 10
0.2903266666666671
 20
11.2042999999999999
 30
0.0
 11
0.1182800000000004
 21
10.6881733333333351
 31
0.0
  0
LINE
  5
22C
100
AcDbEntity
100
AcDbLine
  8
etch
 62
256
370
-1
  6
ByLayer
 10
0.1182800000000004
 20
10.6881733333333351
 30
0.0
 11
-0.2258066666666663
 21
10.1720433333333311
 31
0.0
  0
LINE
  5
22D
100
AcDbEntity
100
AcDbLine
  8
etch
 62
256
370
-1
  6
ByLayer
 10
-0.2258066666666663
 20
10.1720433333333311
 30
0.0
 11
-0.7419333333333329
 21
10.0
 31
0.0
  0
LINE
  5
22E
100
AcDbEntity
100
AcDbLine
  8
etch
 62
256
370
-1
  6
ByLayer
 10
-0.7419333333333329
 20
10.0
 30
0.0
 11
-1.0860199999999995
 21
10.0
 31
0.0
  0
LINE
  5
22F
100
AcDbEntity
100
AcDbLine
  8
etch
 62
256
370
-1
  6
ByLayer
 10
-1.0860199999999995
 20
10.0
 30
0.0
 11
-1.4301066666666662
 21
10.1720433333333329
 31
0.0
  0
LINE
  5
230
100
AcDbEntity
100
AcDbLine
  8
etch
 62
256
370
-1
  6
ByLayer
 10
-1.4301066666666662
 20
10.1720433333333329
 30
0.0
 11
-1.6021466666666662
 21
10.6881733333333333
 31
0.0
  0
LINE
  5
231
100
AcDbEntity
100
AcDbLine
  8
etch
 62
256
370
-1
  6
ByLayer
 10
-1.6021466666666662
 20
10.6881733333333333
 30
0.0
 11
-1.6021466666666662
 21
11.2042999999999999
 31
0.0
  0
LINE
  5
232
100
AcDbEntity
100
AcDbLine
  8
etch
 62
256
370
-1
  6
ByLayer
 10
-0.0537599999999996
 20
12.236559999999999
 30
0.0
 11
0.1182800000000004
 21
11.8924733333333332
 31
0.0
  0
LINE
  5
233
100
AcDbEntity
100
AcDbLine
  8
etch
 62
256
370
-1
  6
ByLayer
 10
0.1182800000000004
 20
11.8924733333333332
 30
0.0
 11
0.1182800000000004
 21
11.2042999999999999
 31
0.0
  0
LINE
  5
234
100
AcDbEntity
100
AcDbLine
  8
etch
 62
256
370
-1
  6
ByLayer
 10
0.1182800000000004
 20
11.2042999999999999
 30
0.0
 11
-0.0537599999999996
 21
10.6881733333333333
 31
0.0
  0
LINE
  5
235
100
AcDbEntity
100
AcDbLine
  8
etch
 62
256
370
-1
  6
ByLayer
 10
-0.0537599999999996
 20
10.6881733333333333
 30
0.0
 11
-0.3978466666666662
 21
10.1720433333333347
 31
0.0
  0
LINE
  5
236
100
AcDbEntity
100
AcDbLine
  8
etch
 62
256
370
-1
  6
ByLayer
 10
-0.3978466666666662
 20
10.1720433333333347
 30
0.0
 11
-0.7419333333333329
 21
10.0
 31
0.0
  0
LINE
  5
237
100
AcDbEntity
100
AcDbLine
  8
etch
 62
256
370
-1
  6
ByLayer
 10
-2.9784933333333328
 20
8.7957000000000001
 30
0.0
 11
-1.7741933333333331
 21
8.7957000000000001
 31
0.0
  0
LINE
  5
238
100
AcDbEntity
100
AcDbLine
  8
etch
 62
256
370
-1
  6
ByLayer
 10
2.6344126666666674
 20
11.7204333333333341
 30
0.0
 11
2.8064560000000007
 21
12.0645133333333323
 31
0.0
  0
LINE
  5
239
100
AcDbEntity
100
AcDbLine
  8
etch
 62
256
370
-1
  6
ByLayer
 10
2.8064560000000007
 20
12.0645133333333323
 30
0.0
 11
3.1505400000000003
 21
12.4085999999999999
 31
0.0
  0
LINE
  5
23A
100
AcDbEntity
100
AcDbLine
  8
etch
 62
256
370
-1
  6
ByLayer
 10
3.1505400000000003
 20
12.4085999999999999
 30
0.0
 11
3.6666733333333337
 21
12.4085999999999999
 31
0.0
  0
LINE
  5
23B
100
AcDbEntity
100
AcDbLine
  8
etch
 62
256
370
-1
  6
ByLayer
 10
3.6666733333333337
 20
12.4085999999999999
 30
0.0
 11
3.8387133333333341
 21
12.236559999999999
 31
0.0
  0
LINE
  5
23C
100
AcDbEntity
100
AcDbLine
  8
etch
 62
256
370
-1
  6
ByLayer
 10
3.8387133333333341
 20
12.236559999999999
 30
0.0
 11
3.8387133333333341
 21
11.8924733333333332
 31
0.0
  0
LINE
  5
23D
100
AcDbEntity
100
AcDbLine
  8
etch
 62
256
370
-1
  6
ByLayer
 10
3.8387133333333341
 20
11.8924733333333332
 30
0.0
 11
3.6666733333333337
 21
11.2042999999999999
 31
0.0
  0
LINE
  5
23E
100
AcDbEntity
100
AcDbLine
  8
etch
 62
256
370
-1
  6
ByLayer
 10
3.6666733333333337
 20
11.2042999999999999
 30
0.0
 11
2.9785000000000004
 21
8.7957000000000001
 31
0.0
  0
LINE
  5
23F
100
AcDbEntity
100
AcDbLine
  8
etch
 62
256
370
-1
  6
ByLayer
 10
3.494626666666667
 20
12.4085999999999999
 30
0.0
 11
3.6666733333333337
 21
12.236559999999999
 31
0.0
  0
LINE
  5
240
100
AcDbEntity
100
AcDbLine
  8
etch
 62
256
370
-1
  6
ByLayer
 10
3.6666733333333337
 20
12.236559999999999
 30
0.0
 11
3.6666733333333337
 21
11.8924733333333332
 31
0.0
  0
LINE
  5
241
100
AcDbEntity
100
AcDbLine
  8
etch
 62
256
370
-1
  6
ByLayer
 10
3.6666733333333337
 20
11.8924733333333332
 30
0.0
 11
3.494626666666667
 21
11.2042999999999999
 31
0.0
  0
LINE
  5
242
100
AcDbEntity
100
AcDbLine
  8
etch
 62
256
370
-1
  6
ByLayer
 10
3.494626666666667
 20
11.2042999999999999
 30
0.0
 11
2.8064559999999998
 21
8.7957000000000001
 31
0.0
  0
LINE
  5
243
100
AcDbEntity
100
AcDbLine
  8
etch
 62
256
370
-1
  6
ByLayer
 10
3.6666733333333337
 20
11.2042999999999999
 30
0.0
 11
3.8387133333333341
 21
11.7204333333333341
 31
0.0
  0
LINE
  5
244
100
AcDbEntity
100
AcDbLine
  8
etch
 62
256
370
-1
  6
ByLayer
 10
3.8387133333333341
 20
11.7204333333333341
 30
0.0
 11
4.1828000000000012
 21
12.236559999999999
 31
0.0
  0
LINE
  5
245
100
AcDbEntity
100
AcDbLine
  8
etch
 62
256
370
-1
  6
ByLayer
 10
4.1828000000000012
 20
12.236559999999999
 30
0.0
 11
4.5268866666666678
 21
12.4085999999999999
 31
0.0
  0
LINE
  5
246
100
AcDbEntity
100
AcDbLine
  8
etch
 62
256
370
-1
  6
ByLayer
 10
4.5268866666666678
 20
12.4085999999999999
 30
0.0
 11
4.8709733333333336
 21
12.4085999999999999
 31
0.0
  0
LINE
  5
247
100
AcDbEntity
100
AcDbLine
  8
etch
 62
256
370
-1
  6
ByLayer
 10
4.8709733333333336
 20
12.4085999999999999
 30
0.0
 11
5.2150600000000011
 21
12.236559999999999
 31
0.0
  0
LINE
  5
248
100
AcDbEntity
100
AcDbLine
  8
etch
 62
256
370
-1
  6
ByLayer
 10
5.2150600000000011
 20
12.236559999999999
 30
0.0
 11
5.3871000000000011
 21
12.0645133333333323
 31
0.0
  0
LINE
  5
249
100
AcDbEntity
100
AcDbLine
  8
etch
 62
256
370
-1
  6
ByLayer
 10
5.3871000000000011
 20
12.0645133333333323
 30
0.0
 11
5.5591466666666678
 21
11.7204333333333341
 31
0.0
  0
LINE
  5
24A
100
AcDbEntity
100
AcDbLine
  8
etch
 62
256
370
-1
  6
ByLayer
 10
5.5591466666666678
 20
11.7204333333333341
 30
0.0
 11
5.5591466666666678
 21
11.2042999999999999
 31
0.0
  0
LINE
  5
24B
100
AcDbEntity
100
AcDbLine
  8
etch
 62
256
370
-1
  6
ByLayer
 10
5.5591466666666678
 20
11.2042999999999999
 30
0.0
 11
5.3871000000000011
 21
10.6881733333333315
 31
0.0
  0
LINE
  5
24C
100
AcDbEntity
100
AcDbLine
  8
etch
 62
256
370
-1
  6
ByLayer
 10
5.3871000000000011
 20
10.6881733333333315
 30
0.0
 11
5.0430133333333345
 21
10.1720433333333311
 31
0.0
  0
LINE
  5
24D
100
AcDbEntity
100
AcDbLine
  8
etch
 62
256
370
-1
  6
ByLayer
 10
5.0430133333333345
 20
10.1720433333333311
 30
0.0
 11
4.5268866666666678
 21
10.0
 31
0.0
  0
LINE
  5
24E
100
AcDbEntity
100
AcDbLine
  8
etch
 62
256
370
-1
  6
ByLayer
 10
4.5268866666666678
 20
10.0
 30
0.0
 11
4.1828000000000012
 21
10.0
 31
0.0
  0
LINE
  5
24F
100
AcDbEntity
100
AcDbLine
  8
etch
 62
256
370
-1
  6
ByLayer
 10
4.1828000000000012
 20
10.0
 30
0.0
 11
3.8387133333333341
 21
10.1720433333333329
 31
0.0
  0
LINE
  5
250
100
AcDbEntity
100
AcDbLine
  8
etch
 62
256
370
-1
  6
ByLayer
 10
3.8387133333333341
 20
10.1720433333333329
 30
0.0
 11
3.6666733333333337
 21
10.6881733333333333
 31
0.0
  0
LINE
  5
251
100
AcDbEntity
100
AcDbLine
  8
etch
 62
256
370
-1
  6
ByLayer
 10
3.6666733333333337
 20
10.6881733333333333
 30
0.0
 11
3.6666733333333337
 21
11.2042999999999999
 31
0.0
  0
LINE
  5
252
100
AcDbEntity
100
AcDbLine
  8
etch
 62
256
370
-1
  6
ByLayer
 10
5.2150600000000011
 20
12.236559999999999
 30
0.0
 11
5.3871000000000011
 21
11.8924733333333332
 31
0.0
  0
LINE
  5
253
100
AcDbEntity
100
AcDbLine
  8
etch
 62
256
370
-1
  6
ByLayer
 10
5.3871000000000011
 20
11.8924733333333332
 30
0.0
 11
5.3871000000000011
 21
11.2042999999999999
 31
0.0
  0
LINE
  5
254
100
AcDbEntity
100
AcDbLine
  8
etch
 62
256
370
-1
  6
ByLayer
 10
5.3871000000000011
 20
11.2042999999999999
 30
0.0
 11
5.2150600000000011
 21
10.6881733333333315
 31
0.0
  0
LINE
  5
255
100
AcDbEntity
100
AcDbLine
  8
etch
 62
256
370
-1
  6
ByLayer
 10
5.2150600000000011
 20
10.6881733333333315
 30
0.0
 11
4.8709733333333336
 21
10.1720433333333347
 31
0.0
  0
LINE
  5
256
100
AcDbEntity
100
AcDbLine
  8
etch
 62
256
370
-1
  6
ByLayer
 10
4.8709733333333336
 20
10.1720433333333347
 30
0.0
 11
4.5268866666666678
 21
10.0
 31
0.0
  0
LINE
  5
257
100
AcDbEntity
100
AcDbLine
  8
etch
 62
256
370
-1
  6
ByLayer
 10
2.2903266666666675
 20
8.7957000000000001
 30
0.0
 11
3.494626666666667
 21
8.7957000000000001
 31
0.0
  0
LINE
  5
258
100
AcDbEntity
100
AcDbLine
  8
etch
 62
256
370
-1
  6
ByLayer
 10
8.4193600000000028
 20
13.6129066666666674
 30
0.0
 11
7.7311900000000042
 21
11.2042999999999999
 31
0.0
  0
LINE
  5
259
100
AcDbEntity
100
AcDbLine
  8
etch
 62
256
370
-1
  6
ByLayer
 10
7.7311900000000042
 20
11.2042999999999999
 30
0.0
 11
7.5591466666666705
 21
10.5161293333333337
 31
0.0
  0
LINE
  5
25A
100
AcDbEntity
100
AcDbLine
  8
etch
 62
256
370
-1
  6
ByLayer
 10
7.5591466666666705
 20
10.5161293333333337
 30
0.0
 11
7.5591466666666705
 21
10.1720433333333329
 31
0.0
  0
LINE
  5
25B
100
AcDbEntity
100
AcDbLine
  8
etch
 62
256
370
-1
  6
ByLayer
 10
7.5591466666666705
 20
10.1720433333333329
 30
0.0
 11
7.7311900000000042
 21
10.0
 31
0.0
  0
LINE
  5
25C
100
AcDbEntity
100
AcDbLine
  8
etch
 62
256
370
-1
  6
ByLayer
 10
7.7311900000000042
 20
10.0
 30
0.0
 11
8.2473200000000038
 21
10.0
 31
0.0
  0
LINE
  5
25D
100
AcDbEntity
100
AcDbLine
  8
etch
 62
256
370
-1
  6
ByLayer
 10
8.2473200000000038
 20
10.0
 30
0.0
 11
8.5914066666666695
 21
10.344085999999999
 31
0.0
  0
LINE
  5
25E
100
AcDbEntity
100
AcDbLine
  8
etch
 62
256
370
-1
  6
ByLayer
 10
8.5914066666666695
 20
10.344085999999999
 30
0.0
 11
8.7634466666666704
 21
10.6881733333333333
 31
0.0
  0
LINE
  5
25F
100
AcDbEntity
100
AcDbLine
  8
etch
 62
256
370
-1
  6
ByLayer
 10
8.5914066666666695
 20
13.6129066666666674
 30
0.0
 11
7.9032326666666703
 21
11.2042999999999999
 31
0.0
  0
LINE
  5
260
100
AcDbEntity
100
AcDbLine
  8
etch
 62
256
370
-1
  6
ByLayer
 10
7.9032326666666703
 20
11.2042999999999999
 30
0.0
 11
7.7311900000000042
 21
10.5161293333333337
 31
0.0
  0
LINE
  5
261
100
AcDbEntity
100
AcDbLine
  8
etch
 62
256
370
-1
  6
ByLayer
 10
7.7311900000000042
 20
10.5161293333333337
 30
0.0
 11
7.7311900000000042
 21
10.1720433333333329
 31
0.0
  0
LINE
  5
262
100
AcDbEntity
100
AcDbLine
  8
etch
 62
256
370
-1
  6
ByLayer
 10
7.7311900000000042
 20
10.1720433333333329
 30
0.0
 11
7.9032326666666703
 21
10.0
 31
0.0
  0
LINE
  5
263
100
AcDbEntity
100
AcDbLine
  8
etch
 62
256
370
-1
  6
ByLayer
 10
7.9032326666666703
 20
13.6129066666666674
 30
0.0
 11
8.5914066666666695
 21
13.6129066666666674
 31
0.0
  0
LINE
  5
264
100
AcDbEntity
100
AcDbLine
  8
etch
 62
256
370
-1
  6
ByLayer
 10
10.7634466666666686
 20
11.7204333333333341
 30
0.0
 11
10.9354900000000015
 21
12.0645133333333323
 31
0.0
  0
LINE
  5
265
100
AcDbEntity
100
AcDbLine
  8
etch
 62
256
370
-1
  6
ByLayer
 10
10.9354900000000015
 20
12.0645133333333323
 30
0.0
 11
11.2795760000000023
 21
12.4085999999999999
 31
0.0
  0
LINE
  5
266
100
AcDbEntity
100
AcDbLine
  8
etch
 62
256
370
-1
  6
ByLayer
 10
11.2795760000000023
 20
12.4085999999999999
 30
0.0
 11
11.7957066666666677
 21
12.4085999999999999
 31
0.0
  0
LINE
  5
267
100
AcDbEntity
100
AcDbLine
  8
etch
 62
256
370
-1
  6
ByLayer
 10
11.7957066666666677
 20
12.4085999999999999
 30
0.0
 11
11.9677466666666685
 21
12.236559999999999
 31
0.0
  0
LINE
  5
268
100
AcDbEntity
100
AcDbLine
  8
etch
 62
256
370
-1
  6
ByLayer
 10
11.9677466666666685
 20
12.236559999999999
 30
0.0
 11
11.9677466666666685
 21
11.7204333333333341
 31
0.0
  0
LINE
  5
269
100
AcDbEntity
100
AcDbLine
  8
etch
 62
256
370
-1
  6
ByLayer
 10
11.9677466666666685
 20
11.7204333333333341
 30
0.0
 11
11.623660000000001
 21
10.6881733333333333
 31
0.0
  0
LINE
  5
26A
100
AcDbEntity
100
AcDbLine
  8
etch
 62
256
370
-1
  6
ByLayer
 10
11.623660000000001
 20
10.6881733333333333
 30
0.0
 11
11.623660000000001
 21
10.344085999999999
 31
0.0
  0
LINE
  5
26B
100
AcDbEntity
100
AcDbLine
  8
etch
 62
256
370
-1
  6
ByLayer
 10
11.623660000000001
 20
10.344085999999999
 30
0.0
 11
11.9677466666666685
 21
10.0
 31
0.0
  0
LINE
  5
26C
100
AcDbEntity
100
AcDbLine
  8
etch
 62
256
370
-1
  6
ByLayer
 10
11.623660000000001
 20
12.4085999999999999
 30
0.0
 11
11.7957066666666677
 21
12.236559999999999
 31
0.0
  0
LINE
  5
26D
100
AcDbEntity
100
AcDbLine
  8
etch
 62
256
370
-1
  6
ByLayer
 10
11.7957066666666677
 20
12.236559999999999
 30
0.0
 11
11.7957066666666677
 21
11.7204333333333341
 31
0.0
  0
LINE
  5
26E
100
AcDbEntity
100
AcDbLine
  8
etch
 62
256
370
-1
  6
ByLayer
 10
11.7957066666666677
 20
11.7204333333333341
 30
0.0
 11
11.4516200000000019
 21
10.6881733333333333
 31
0.0
  0
LINE
  5
26F
100
AcDbEntity
100
AcDbLine
  8
etch
 62
256
370
-1
  6
ByLayer
 10
11.4516200000000019
 20
10.6881733333333333
 30
0.0
 11
11.4516200000000019
 21
10.344085999999999
 31
0.0
  0
LINE
  5
270
100
AcDbEntity
100
AcDbLine
  8
etch
 62
256
370
-1
  6
ByLayer
 10
11.4516200000000019
 20
10.344085999999999
 30
0.0
 11
11.623660000000001
 21
10.1720433333333329
 31
0.0
  0
LINE
  5
271
100
AcDbEntity
100
AcDbLine
  8
etch
 62
256
370
-1
  6
ByLayer
 10
11.623660000000001
 20
10.1720433333333329
 30
0.0
 11
11.9677466666666685
 21
10.0
 31
0.0
  0
LINE
  5
272
100
AcDbEntity
100
AcDbLine
  8
etch
 62
256
370
-1
  6
ByLayer
 10
11.9677466666666685
 20
10.0
 30
0.0
 11
12.3118333333333361
 21
10.0
 31
0.0
  0
LINE
  5
273
100
AcDbEntity
100
AcDbLine
  8
etch
 62
256
370
-1
  6
ByLayer
 10
12.3118333333333361
 20
10.0
 30
0.0
 11
12.6559200000000018
 21
10.1720433333333311
 31
0.0
  0
LINE
  5
274
100
AcDbEntity
100
AcDbLine
  8
etch
 62
256
370
-1
  6
ByLayer
 10
12.6559200000000018
 20
10.1720433333333311
 30
0.0
 11
13.0000066666666676
 21
10.5161293333333337
 31
0.0
  0
LINE
  5
275
100
AcDbEntity
100
AcDbLine
  8
etch
 62
256
370
-1
  6
ByLayer
 10
13.0000066666666676
 20
10.5161293333333337
 30
0.0
 11
13.3440933333333351
 21
11.2042999999999999
 31
0.0
  0
LINE
  5
276
100
AcDbEntity
100
AcDbLine
  8
etch
 62
256
370
-1
  6
ByLayer
 10
13.8602200000000018
 20
12.4085999999999999
 30
0.0
 11
13.1720466666666685
 21
10.0
 31
0.0
  0
LINE
  5
277
100
AcDbEntity
100
AcDbLine
  8
etch
 62
256
370
-1
  6
ByLayer
 10
13.1720466666666685
 20
10.0
 30
0.0
 11
13.0000066666666676
 21
9.4838706666666663
 31
0.0
  0
LINE
  5
278
100
AcDbEntity
100
AcDbLine
  8
etch
 62
256
370
-1
  6
ByLayer
 10
13.0000066666666676
 20
9.4838706666666663
 30
0.0
 11
12.6559200000000018
 21
8.9677400000000009
 31
0.0
  0
LINE
  5
279
100
AcDbEntity
100
AcDbLine
  8
etch
 62
256
370
-1
  6
ByLayer
 10
12.6559200000000018
 20
8.9677400000000009
 30
0.0
 11
12.1397933333333352
 21
8.7957000000000001
 31
0.0
  0
LINE
  5
27A
100
AcDbEntity
100
AcDbLine
  8
etch
 62
256
370
-1
  6
ByLayer
 10
12.1397933333333352
 20
8.7957000000000001
 30
0.0
 11
11.623660000000001
 21
8.7957000000000001
 31
0.0
  0
LINE
  5
27B
100
AcDbEntity
100
AcDbLine
  8
etch
 62
256
370
-1
  6
ByLayer
 10
11.623660000000001
 20
8.7957000000000001
 30
0.0
 11
11.2795760000000023
 21
8.9677400000000009
 31
0.0
  0
LINE
  5
27C
100
AcDbEntity
100
AcDbLine
  8
etch
 62
256
370
-1
  6
ByLayer
 10
11.2795760000000023
 20
8.9677400000000009
 30
0.0
 11
11.1075326666666676
 21
9.1397866666666676
 31
0.0
  0
LINE
  5
27D
100
AcDbEntity
100
AcDbLine
  8
etch
 62
256
370
-1
  6
ByLayer
 10
11.1075326666666676
 20
9.1397866666666676
 30
0.0
 11
11.1075326666666676
 21
9.3118266666666667
 31
0.0
  0
LINE
  5
27E
100
AcDbEntity
100
AcDbLine
  8
etch
 62
256
370
-1
  6
ByLayer
 10
11.1075326666666676
 20
9.3118266666666667
 30
0.0
 11
11.2795760000000023
 21
9.4838706666666663
 31
0.0
  0
LINE
  5
27F
100
AcDbEntity
100
AcDbLine
  8
etch
 62
256
370
-1
  6
ByLayer
 10
11.2795760000000023
 20
9.4838706666666663
 30
0.0
 11
11.4516200000000019
 21
9.3118266666666667
 31
0.0
  0
LINE
  5
280
100
AcDbEntity
100
AcDbLine
  8
etch
 62
256
370
-1
  6
ByLayer
 10
11.4516200000000019
 20
9.3118266666666667
 30
0.0
 11
11.2795760000000023
 21
9.1397866666666676
 31
0.0
  0
LINE
  5
281
100
AcDbEntity
100
AcDbLine
  8
etch
 62
256
370
-1
  6
ByLayer
 10
13.6881800000000027
 20
12.4085999999999999
 30
0.0
 11
13.0000066666666676
 21
10.0
 31
0.0
  0
LINE
  5
282
100
AcDbEntity
100
AcDbLine
  8
etch
 62
256
370
-1
  6
ByLayer
 10
13.0000066666666676
 20
10.0
 30
0.0
 11
12.8279600000000009
 21
9.4838706666666646
 31
0.0
  0
LINE
  5
283
100
AcDbEntity
100
AcDbLine
  8
etch
 62
256
370
-1
  6
ByLayer
 10
12.8279600000000009
 20
9.4838706666666646
 30
0.0
 11
12.4838800000000028
 21
8.9677400000000009
 31
0.0
  0
LINE
  5
284
100
AcDbEntity
100
AcDbLine
  8
etch
 62
256
370
-1
  6
ByLayer
 10
12.4838800000000028
 20
8.9677400000000009
 30
0.0
 11
12.1397933333333352
 21
8.7957000000000001
 31
0.0
  0
ENDSEC
  0
SECTION
  2
OBJECTS
  0
DICTIONARY
  5
C
100
AcDbDictionary
280
0
281
1
  3
ACAD_GROUP
350
D
  3
ACAD_LAYOUT
350
1A
  3
ACAD_MLINESTYLE
350
17
  3
ACAD_PLOTSETTINGS
350
19
  3
ACAD_PLOTSTYLENAME
350
E
  3
AcDbVariableDictionary
350
285
  0
DICTIONARY
  5
D
100
AcDbDictionary
280
0
281
1
  0
ACDBDICTIONARYWDFLT
  5
E
100
AcDbDictionary
281
1
  3
Normal
350
F
100
AcDbDictionaryWithDefault
340
F
  0
ACDBPLACEHOLDER
  5
F
  0
DICTIONARY
  5
17
100
AcDbDictionary
280
0
281
1
  3
Standard
350
18
  0
MLINESTYLE
  5
18
100
AcDbMlineStyle
  2
STANDARD
 70
0
  3

 62
256
 51
90.0
 52
90.0
 71
2
 49
0.5
 62
256
  6
BYLAYER
 49
-0.5
 62
256
  6
BYLAYER
  0
DICTIONARY
  5
19
100
AcDbDictionary
280
0
281
1
  0
DICTIONARY
  5
1A
100
AcDbDictionary
281
1
  3
Layout1
350
1E
  3
Layout2
350
26
  3
Model
350
22
  0
LAYOUT
  5
1E
100
AcDbPlotSettings
  1

  2
C:\Program Files\AutoCAD 2002\plotters\DWF ePlot (optimized for plotting).pc3
  4

  6

 40
0.0
 41
0.0
 42
0.0
 43
0.0
 44
0.0
 45
0.0
 46
0.0
 47
0.0
 48
0.0
 49
0.0
140
0.0
141
0.0
142
1.0
143
1.0
 70
688
 72
0
 73
0
 74
5
  7

 75
16
147
1.0
148
0.0
149
0.0
100
AcDbLayout
  1
Layout1
 70
1
 71
1
 10
0.0
 20
0.0
 11
420.0
 21
297.0
 12
0.0
 22
0.0
 32
0.0
 14
100000000000000000000.0
 24
100000000000000000000.0
 34
100000000000000000000.0
 15
-100000000000000000000.0
 25
-100000000000000000000.0
 35
-100000000000000000000.0
146
0.0
 13
0.0
 23
0.0
 33
0.0
 16
1.0
 26
0.0
 36
0.0
 17
0.0
 27
1.0
 37
0.0
 76
0
330
1B
  0
LAYOUT
  5
22
100
AcDbPlotSettings
  1

  2
C:\Program Files\AutoCAD 2002\plotters\DWF ePlot (optimized for plotting).pc3
  4

  6

 40
0.0
 41
0.0
 42
0.0
 43
0.0
 44
0.0
 45
0.0
 46
0.0
 47
0.0
 48
0.0
 49
0.0
140
0.0
141
0.0
142
1.0
143
1.0
 70
1712
 72
0
 73
0
 74
0
  7

 75
0
147
1.0
148
0.0
149
0.0
100
AcDbLayout
  1
Model
 70
1
 71
0
 10
0.0
 20
0.0
 11
12.0
 21
9.0
 12
0.0
 22
0.0
 32
0.0
 14
0.0
 24
0.0
 34
0.0
 15
0.0
 25
0.0
 35
0.0
146
0.0
 13
0.0
 23
0.0
 33
0.0
 16
1.0
 26
0.0
 36
0.0
 17
0.0
 27
1.0
 37
0.0
 76
0
330
1F
  0
LAYOUT
  5
26
100
AcDbPlotSettings
  1

  2
C:\Program Files\AutoCAD 2002\plotters\DWF ePlot (optimized for plotting).pc3
  4

  6

 40
0.0
 41
0.0
 42
0.0
 43
0.0
 44
0.0
 45
0.0
 46
0.0
 47
0.0
 48
0.0
 49
0.0
140
0.0
141
0.0
142
1.0
143
1.0
 70
688
 72
0
 73
0
 74
5
  7

 75
16
147
1.0
148
0.0
149
0.0
100
AcDbLayout
  1
Layout2
 70
1
 71
2
 10
0.0
 20
0.0
 11
12.0
 21
9.0
 12
0.0
 22
0.0
 32
0.0
 14
0.0
 24
0.0
 34
0.0
 15
0.0
 25
0.0
 35
0.0
146
0.0
 13
0.0
 23
0.0
 33
0.0
 16
1.0
 26
0.0
 36
0.0
 17
0.0
 27
1.0
 37
0.0
 76
0
330
23
  0
DICTIONARY
  5
285
100
AcDbDictionary
281
1
  3
DIMASSOC
350
287
  3
HIDETEXT
350
286
  0
DICTIONARYVAR
  5
286
100
DictionaryVariables
280
0
  1
2
  0
DICTIONARYVAR
  5
287
100
DictionaryVariables
280
0
  1
1
  0
ENDSEC
  0
EOF
